<svg width="1199" height="94" viewBox="0 0 1199 94" fill="none" xmlns="http://www.w3.org/2000/svg">
<path d="M1198.33 77.1039C1198.33 80.1759 1197.56 82.9919 1196.03 85.5519C1194.49 88.1119 1192.44 90.1599 1189.88 91.6959C1187.32 93.2319 1184.51 93.9999 1181.43 93.9999H1147.26C1145.64 93.9999 1144.23 93.4453 1143.03 92.3359C1141.92 91.1413 1141.37 89.7333 1141.37 88.1119V13.3599C1141.37 11.6533 1141.92 10.2453 1143.03 9.13593C1144.23 8.02659 1145.64 7.47192 1147.26 7.47192H1179.64C1182.8 7.47192 1185.62 8.23992 1188.09 9.77592C1190.65 11.3119 1192.7 13.3599 1194.23 15.9199C1195.77 18.4799 1196.54 21.3386 1196.54 24.4959V39.7279C1196.54 42.0319 1196.11 44.1653 1195.26 46.1279C1194.83 47.0666 1194.92 48.0053 1195.51 48.9439C1197.39 51.7599 1198.33 54.9173 1198.33 58.4159V77.1039ZM1181.43 39.7279V24.4959C1181.43 23.9839 1181.22 23.5573 1180.79 23.2159C1180.45 22.8746 1180.07 22.7039 1179.64 22.7039H1158.39C1157.28 22.7039 1156.73 23.2586 1156.73 24.3679V39.7279C1156.73 40.8373 1157.28 41.3919 1158.39 41.3919H1179.64C1180.07 41.3919 1180.45 41.2213 1180.79 40.8799C1181.22 40.5386 1181.43 40.1546 1181.43 39.7279ZM1183.1 77.1039V58.4159C1183.1 57.2213 1182.54 56.6239 1181.43 56.6239H1158.39C1157.28 56.6239 1156.73 57.1786 1156.73 58.2879V77.2319C1156.73 78.3413 1157.28 78.8959 1158.39 78.8959H1181.43C1181.86 78.8959 1182.24 78.7253 1182.59 78.3839C1182.93 77.9573 1183.1 77.5306 1183.1 77.1039Z" fill="#FF782C"/>
<path d="M1130.92 86.3199C1131.43 88.2826 1131.13 90.0746 1130.03 91.6959C1128.92 93.2319 1127.34 93.9999 1125.29 93.9999H1121.58C1120.38 93.9999 1119.23 93.6159 1118.12 92.8479C1117.1 92.0799 1116.37 91.1413 1115.95 90.0319L1111.08 75.3119C1110.74 74.2026 1110.01 73.6479 1108.91 73.6479H1087.02C1085.91 73.6479 1085.18 74.2026 1084.84 75.3119L1079.98 90.0319C1079.55 91.1413 1078.83 92.0799 1077.8 92.8479C1076.78 93.6159 1075.63 93.9999 1074.35 93.9999H1070.63C1068.59 93.9999 1067.01 93.2319 1065.9 91.6959C1064.7 89.9893 1064.45 88.1973 1065.13 86.3199L1089.96 11.4399C1090.39 10.2453 1091.07 9.30659 1092.01 8.62392C1093.03 7.85592 1094.14 7.47192 1095.34 7.47192H1100.59C1101.78 7.47192 1102.89 7.85592 1103.91 8.62392C1104.94 9.30659 1105.62 10.2453 1105.96 11.4399L1130.92 86.3199ZM1105.07 56.8799L1098.67 37.2959C1098.24 36.6986 1097.77 36.6986 1097.26 37.2959L1090.86 56.8799C1090.69 57.3066 1090.73 57.6906 1090.99 58.0319C1091.24 58.3733 1091.58 58.5439 1092.01 58.5439H1103.91C1104.34 58.5439 1104.68 58.3733 1104.94 58.0319C1105.19 57.6906 1105.24 57.3066 1105.07 56.8799Z" fill="#FF782C"/>
<path d="M1054.55 88.1119C1054.55 89.7333 1053.95 91.1413 1052.76 92.3359C1051.65 93.4453 1050.32 93.9999 1048.79 93.9999H1004.76C1003.22 93.9999 1001.85 93.4453 1000.66 92.3359C999.55 91.1413 998.995 89.7333 998.995 88.1119V13.3599C998.995 11.6533 999.55 10.2453 1000.66 9.13593C1001.85 8.02659 1003.22 7.47192 1004.76 7.47192H1008.34C1009.96 7.47192 1011.33 8.02659 1012.44 9.13593C1013.63 10.2453 1014.23 11.6533 1014.23 13.3599V77.2319C1014.23 78.3413 1014.74 78.8959 1015.76 78.8959H1048.79C1050.32 78.8959 1051.65 79.4506 1052.76 80.5599C1053.95 81.6693 1054.55 83.0773 1054.55 84.7839V88.1119Z" fill="#FF782C"/>
<path d="M959.119 77.1039C959.119 80.1759 958.351 82.9919 956.815 85.5519C955.279 88.1119 953.231 90.1599 950.671 91.6959C948.111 93.2319 945.295 93.9999 942.223 93.9999H917.647C914.575 93.9999 911.717 93.2319 909.071 91.6959C906.511 90.1599 904.463 88.1119 902.927 85.5519C901.391 82.9919 900.623 80.1759 900.623 77.1039V73.2639C900.623 71.6426 901.178 70.2773 902.287 69.1679C903.482 67.9733 904.89 67.3759 906.511 67.3759H910.095C911.631 67.3759 912.954 67.9733 914.063 69.1679C915.258 70.2773 915.855 71.6426 915.855 73.2639V77.1039C915.855 77.5306 916.026 77.9573 916.367 78.3839C916.794 78.7253 917.22 78.8959 917.647 78.8959H942.223C942.65 78.8959 943.034 78.7253 943.375 78.3839C943.717 77.9573 943.887 77.5306 943.887 77.1039V65.4559C943.887 64.5173 943.461 63.9199 942.607 63.6639L911.887 52.1439C908.474 50.9493 905.743 48.8586 903.695 45.8719C901.647 42.8853 900.623 39.5999 900.623 36.0159V24.4959C900.623 21.3386 901.391 18.4799 902.927 15.9199C904.463 13.3599 906.511 11.3119 909.071 9.77592C911.717 8.23992 914.575 7.47192 917.647 7.47192H942.223C945.295 7.47192 948.111 8.23992 950.671 9.77592C953.231 11.3119 955.279 13.3599 956.815 15.9199C958.351 18.4799 959.119 21.3386 959.119 24.4959V27.9519C959.119 29.5733 958.522 30.9386 957.327 32.0479C956.218 33.1573 954.853 33.7119 953.231 33.7119H949.775C948.154 33.7119 946.746 33.1573 945.551 32.0479C944.442 30.9386 943.887 29.5733 943.887 27.9519V24.4959C943.887 23.3013 943.333 22.7039 942.223 22.7039H917.647C917.22 22.7039 916.794 22.8746 916.367 23.2159C916.026 23.5573 915.855 23.9839 915.855 24.4959V36.0159C915.855 37.0399 916.282 37.6799 917.135 37.9359L947.983 49.4559C951.311 50.6506 953.999 52.7413 956.047 55.7279C958.095 58.7146 959.119 61.9573 959.119 65.4559V77.1039Z" fill="#FF782C"/>
<path d="M890.08 77.1039C890.08 80.1759 889.312 82.9919 887.776 85.5519C886.24 88.1119 884.192 90.1599 881.632 91.6959C879.072 93.2319 876.256 93.9999 873.184 93.9999H850.144C847.072 93.9999 844.214 93.2319 841.568 91.6959C839.008 90.1599 836.96 88.1119 835.424 85.5519C833.888 82.9919 833.12 80.1759 833.12 77.1039V24.4959C833.12 21.3386 833.888 18.4799 835.424 15.9199C836.96 13.3599 839.008 11.3119 841.568 9.77592C844.214 8.23992 847.072 7.47192 850.144 7.47192H873.184C876.256 7.47192 879.072 8.23992 881.632 9.77592C884.192 11.3119 886.24 13.3599 887.776 15.9199C889.312 18.4799 890.08 21.3386 890.08 24.4959V27.9519C890.08 29.5733 889.526 30.9386 888.416 32.0479C887.307 33.1573 885.899 33.7119 884.192 33.7119H880.736C879.115 33.7119 877.707 33.1573 876.512 32.0479C875.403 30.9386 874.848 29.5733 874.848 27.9519V24.4959C874.848 23.3013 874.294 22.7039 873.184 22.7039H850.144C849.035 22.7039 848.48 23.3013 848.48 24.4959V77.1039C848.48 77.5306 848.651 77.9573 848.992 78.3839C849.334 78.7253 849.717 78.8959 850.144 78.8959H873.184C873.611 78.8959 873.995 78.7253 874.336 78.3839C874.678 77.9573 874.848 77.5306 874.848 77.1039V73.2639C874.848 71.6426 875.403 70.2773 876.512 69.1679C877.707 67.9733 879.115 67.3759 880.736 67.3759H884.192C885.899 67.3759 887.307 67.9733 888.416 69.1679C889.526 70.2773 890.08 71.6426 890.08 73.2639V77.1039Z" fill="#FF782C"/>
<path d="M822.73 88.1119C822.73 89.7333 822.133 91.1413 820.938 92.3359C819.829 93.4453 818.463 93.9999 816.842 93.9999H813.386C811.765 93.9999 810.357 93.4453 809.162 92.3359C808.053 91.1413 807.498 89.7333 807.498 88.1119V13.3599C807.498 11.6533 808.053 10.2453 809.162 9.13593C810.357 8.02659 811.765 7.47192 813.386 7.47192H816.842C818.463 7.47192 819.829 8.02659 820.938 9.13593C822.133 10.2453 822.73 11.6533 822.73 13.3599V88.1119Z" fill="#FF782C"/>
<path d="M797.083 16.8159C797.083 18.4373 796.529 19.8453 795.419 21.0399C794.31 22.1493 792.902 22.7039 791.195 22.7039H777.755C776.646 22.7039 776.091 23.2586 776.091 24.3679V88.1119C776.091 89.7333 775.494 91.1413 774.299 92.3359C773.19 93.4453 771.825 93.9999 770.203 93.9999H766.875C765.254 93.9999 763.846 93.4453 762.651 92.3359C761.542 91.1413 760.987 89.7333 760.987 88.1119V24.3679C760.987 23.2586 760.433 22.7039 759.323 22.7039H745.755C744.134 22.7039 742.726 22.1493 741.531 21.0399C740.422 19.8453 739.867 18.4373 739.867 16.8159V13.3599C739.867 11.6533 740.422 10.2453 741.531 9.13593C742.726 8.02659 744.134 7.47192 745.755 7.47192H791.195C792.902 7.47192 794.31 8.02659 795.419 9.13593C796.529 10.2453 797.083 11.6533 797.083 13.3599V16.8159Z" fill="#FF782C"/>
<path d="M729.619 77.1039C729.619 80.1759 728.851 82.9919 727.315 85.5519C725.779 88.1119 723.731 90.1599 721.171 91.6959C718.611 93.2319 715.795 93.9999 712.723 93.9999H688.147C685.075 93.9999 682.217 93.2319 679.571 91.6959C677.011 90.1599 674.963 88.1119 673.427 85.5519C671.891 82.9919 671.123 80.1759 671.123 77.1039V24.4959C671.123 21.3386 671.891 18.4799 673.427 15.9199C674.963 13.3599 677.011 11.3119 679.571 9.77592C682.217 8.23992 685.075 7.47192 688.147 7.47192H712.723C715.795 7.47192 718.611 8.23992 721.171 9.77592C723.731 11.3119 725.779 13.3599 727.315 15.9199C728.851 18.4799 729.619 21.3386 729.619 24.4959V77.1039ZM714.387 77.1039V24.4959C714.387 23.3013 713.833 22.7039 712.723 22.7039H688.147C687.72 22.7039 687.294 22.8746 686.867 23.2159C686.526 23.5573 686.355 23.9839 686.355 24.4959V77.1039C686.355 77.5306 686.526 77.9573 686.867 78.3839C687.294 78.7253 687.72 78.8959 688.147 78.8959H712.723C713.15 78.8959 713.534 78.7253 713.875 78.3839C714.217 77.9573 714.387 77.5306 714.387 77.1039Z" fill="#FF782C"/>
<path d="M660.58 77.1039C660.58 80.1759 659.812 82.9919 658.276 85.5519C656.74 88.1119 654.692 90.1599 652.132 91.6959C649.572 93.2319 646.756 93.9999 643.684 93.9999H609.508C607.887 93.9999 606.479 93.4453 605.284 92.3359C604.175 91.1413 603.62 89.7333 603.62 88.1119V13.3599C603.62 11.6533 604.175 10.2453 605.284 9.13593C606.479 8.02659 607.887 7.47192 609.508 7.47192H641.892C645.05 7.47192 647.866 8.23992 650.34 9.77592C652.9 11.3119 654.948 13.3599 656.484 15.9199C658.02 18.4799 658.788 21.3386 658.788 24.4959V39.7279C658.788 42.0319 658.362 44.1653 657.508 46.1279C657.082 47.0666 657.167 48.0053 657.764 48.9439C659.641 51.7599 660.58 54.9173 660.58 58.4159V77.1039ZM643.684 39.7279V24.4959C643.684 23.9839 643.471 23.5573 643.044 23.2159C642.703 22.8746 642.319 22.7039 641.892 22.7039H620.644C619.535 22.7039 618.98 23.2586 618.98 24.3679V39.7279C618.98 40.8373 619.535 41.3919 620.644 41.3919H641.892C642.319 41.3919 642.703 41.2213 643.044 40.8799C643.471 40.5386 643.684 40.1546 643.684 39.7279ZM645.348 77.1039V58.4159C645.348 57.2213 644.794 56.6239 643.684 56.6239H620.644C619.535 56.6239 618.98 57.1786 618.98 58.2879V77.2319C618.98 78.3413 619.535 78.8959 620.644 78.8959H643.684C644.111 78.8959 644.495 78.7253 644.836 78.3839C645.178 77.9573 645.348 77.5306 645.348 77.1039Z" fill="#FF782C"/>
<path d="M593.244 77.1039C593.244 80.1759 592.476 82.9919 590.94 85.5519C589.404 88.1119 587.356 90.1599 584.796 91.6959C582.236 93.2319 579.42 93.9999 576.348 93.9999H551.772C548.7 93.9999 545.842 93.2319 543.196 91.6959C540.636 90.1599 538.588 88.1119 537.052 85.5519C535.516 82.9919 534.748 80.1759 534.748 77.1039V24.4959C534.748 21.3386 535.516 18.4799 537.052 15.9199C538.588 13.3599 540.636 11.3119 543.196 9.77592C545.842 8.23992 548.7 7.47192 551.772 7.47192H576.348C579.42 7.47192 582.236 8.23992 584.796 9.77592C587.356 11.3119 589.404 13.3599 590.94 15.9199C592.476 18.4799 593.244 21.3386 593.244 24.4959V77.1039ZM578.012 77.1039V24.4959C578.012 23.3013 577.458 22.7039 576.348 22.7039H551.772C551.345 22.7039 550.919 22.8746 550.492 23.2159C550.151 23.5573 549.98 23.9839 549.98 24.4959V77.1039C549.98 77.5306 550.151 77.9573 550.492 78.3839C550.919 78.7253 551.345 78.8959 551.772 78.8959H576.348C576.775 78.8959 577.159 78.7253 577.5 78.3839C577.842 77.9573 578.012 77.5306 578.012 77.1039Z" fill="#FF782C"/>
<path d="M523.604 85.9359C524.458 87.8986 524.33 89.6906 523.22 91.3119C521.94 93.1039 520.319 93.9999 518.356 93.9999H514.516C513.407 93.9999 512.298 93.6586 511.188 92.9759C510.164 92.2933 509.439 91.4399 509.012 90.4159L496.98 61.6159C496.554 60.5919 495.786 60.0799 494.676 60.0799H482.772C481.663 60.0799 481.108 60.6346 481.108 61.7439V88.1119C481.108 89.7333 480.511 91.1413 479.316 92.3359C478.207 93.4453 476.842 93.9999 475.22 93.9999H471.636C470.015 93.9999 468.65 93.4453 467.54 92.3359C466.516 91.1413 466.004 89.7333 466.004 88.1119V13.3599C466.004 11.6533 466.516 10.2453 467.54 9.13593C468.65 8.02659 470.015 7.47192 471.636 7.47192H506.324C509.396 7.47192 512.212 8.23992 514.772 9.77592C517.332 11.3119 519.38 13.3599 520.916 15.9199C522.452 18.4799 523.22 21.3386 523.22 24.4959V43.1839C523.22 46.5119 522.324 49.5413 520.532 52.2719C518.826 54.9173 516.564 56.9653 513.748 58.4159C513.407 58.5013 513.151 58.7999 512.98 59.3119C512.81 59.7386 512.852 60.1653 513.108 60.5919L523.604 85.9359ZM507.988 43.1839V24.4959C507.988 23.3013 507.434 22.7039 506.324 22.7039H482.772C481.663 22.7039 481.108 23.2586 481.108 24.3679V43.1839C481.108 44.2933 481.663 44.8479 482.772 44.8479H506.324C507.434 44.8479 507.988 44.2933 507.988 43.1839Z" fill="#FF782C"/>
<path d="M425.705 77.1039C425.705 80.1759 424.937 82.9919 423.401 85.5519C421.865 88.1119 419.817 90.1599 417.257 91.6959C414.697 93.2319 411.881 93.9999 408.809 93.9999H374.633C373.012 93.9999 371.604 93.4453 370.409 92.3359C369.3 91.1413 368.745 89.7333 368.745 88.1119V13.3599C368.745 11.6533 369.3 10.2453 370.409 9.13593C371.604 8.02659 373.012 7.47192 374.633 7.47192H408.809C411.881 7.47192 414.697 8.23992 417.257 9.77592C419.817 11.3119 421.865 13.3599 423.401 15.9199C424.937 18.4799 425.705 21.3386 425.705 24.4959V77.1039ZM410.473 77.1039V24.4959C410.473 23.3013 409.919 22.7039 408.809 22.7039H385.769C384.66 22.7039 384.105 23.2586 384.105 24.3679V77.2319C384.105 78.3413 384.66 78.8959 385.769 78.8959H408.809C409.236 78.8959 409.62 78.7253 409.961 78.3839C410.303 77.9573 410.473 77.5306 410.473 77.1039Z" fill="#FF782C"/>
<path d="M358.547 88.1119C358.547 89.7333 357.95 91.1413 356.755 92.3359C355.646 93.4453 354.323 93.9999 352.787 93.9999H308.755C307.219 93.9999 305.854 93.4453 304.659 92.3359C303.55 91.1413 302.995 89.7333 302.995 88.1119V13.3599C302.995 11.6533 303.55 10.2453 304.659 9.13593C305.854 8.02659 307.219 7.47192 308.755 7.47192H352.787C354.323 7.47192 355.646 8.02659 356.755 9.13593C357.95 10.2453 358.547 11.6533 358.547 13.3599V16.8159C358.547 18.4373 357.95 19.8453 356.755 21.0399C355.646 22.1493 354.323 22.7039 352.787 22.7039H319.763C318.739 22.7039 318.227 23.2586 318.227 24.3679V41.3919C318.227 42.5866 318.739 43.1839 319.763 43.1839H348.179C349.886 43.1839 351.294 43.7386 352.403 44.8479C353.513 45.9573 354.067 47.3226 354.067 48.9439V52.5279C354.067 54.1493 353.513 55.5573 352.403 56.7519C351.294 57.8613 349.886 58.4159 348.179 58.4159H319.763C318.739 58.4159 318.227 58.9279 318.227 59.9519V77.2319C318.227 78.3413 318.739 78.8959 319.763 78.8959H352.787C354.323 78.8959 355.646 79.4506 356.755 80.5599C357.95 81.6693 358.547 83.0773 358.547 84.7839V88.1119Z" fill="#FF782C"/>
<path d="M292.605 88.1119C292.605 89.7333 292.008 91.1413 290.813 92.3359C289.704 93.4453 288.339 93.9999 286.717 93.9999H283.261C281.64 93.9999 280.232 93.4453 279.037 92.3359C277.928 91.1413 277.373 89.7333 277.373 88.1119V13.3599C277.373 11.6533 277.928 10.2453 279.037 9.13593C280.232 8.02659 281.64 7.47192 283.261 7.47192H286.717C288.339 7.47192 289.704 8.02659 290.813 9.13593C292.008 10.2453 292.605 11.6533 292.605 13.3599V88.1119Z" fill="#FF782C"/>
<path d="M267.047 88.1119C267.047 89.7333 266.45 91.1413 265.255 92.3359C264.146 93.4453 262.823 93.9999 261.287 93.9999H217.255C215.719 93.9999 214.354 93.4453 213.159 92.3359C212.05 91.1413 211.495 89.7333 211.495 88.1119V13.3599C211.495 11.6533 212.05 10.2453 213.159 9.13593C214.354 8.02659 215.719 7.47192 217.255 7.47192H220.839C222.461 7.47192 223.826 8.02659 224.935 9.13593C226.13 10.2453 226.727 11.6533 226.727 13.3599V77.2319C226.727 78.3413 227.239 78.8959 228.263 78.8959H261.287C262.823 78.8959 264.146 79.4506 265.255 80.5599C266.45 81.6693 267.047 83.0773 267.047 84.7839V88.1119Z" fill="#FF782C"/>
<path d="M201.208 43.1839C201.208 46.2559 200.44 49.0719 198.904 51.6319C197.454 54.1919 195.448 56.2399 192.888 57.7759C190.328 59.3119 187.47 60.0799 184.312 60.0799H160.76C159.736 60.0799 159.224 60.6346 159.224 61.7439V88.1119C159.224 89.7333 158.627 91.1413 157.432 92.3359C156.323 93.4453 154.958 93.9999 153.336 93.9999H149.88C148.259 93.9999 146.851 93.4453 145.656 92.3359C144.547 91.1413 143.992 89.7333 143.992 88.1119V13.3599C143.992 11.6533 144.547 10.2453 145.656 9.13593C146.851 8.02659 148.259 7.47192 149.88 7.47192H184.312C187.47 7.47192 190.328 8.23992 192.888 9.77592C195.448 11.3119 197.454 13.3599 198.904 15.9199C200.44 18.4799 201.208 21.3386 201.208 24.4959V43.1839ZM186.104 43.1839V24.4959C186.104 23.3013 185.507 22.7039 184.312 22.7039H160.76C159.736 22.7039 159.224 23.2586 159.224 24.3679V43.1839C159.224 44.2933 159.736 44.8479 160.76 44.8479H184.312C185.507 44.8479 186.104 44.2933 186.104 43.1839Z" fill="#FF782C"/>
<path d="M133.833 43.1839C133.833 46.2559 133.065 49.0719 131.529 51.6319C130.079 54.1919 128.073 56.2399 125.513 57.7759C122.953 59.3119 120.095 60.0799 116.937 60.0799H93.3852C92.3612 60.0799 91.8492 60.6346 91.8492 61.7439V88.1119C91.8492 89.7333 91.2519 91.1413 90.0572 92.3359C88.9479 93.4453 87.5825 93.9999 85.9612 93.9999H82.5052C80.8839 93.9999 79.4759 93.4453 78.2812 92.3359C77.1719 91.1413 76.6172 89.7333 76.6172 88.1119V13.3599C76.6172 11.6533 77.1719 10.2453 78.2812 9.13593C79.4759 8.02659 80.8839 7.47192 82.5052 7.47192H116.937C120.095 7.47192 122.953 8.23992 125.513 9.77592C128.073 11.3119 130.079 13.3599 131.529 15.9199C133.065 18.4799 133.833 21.3386 133.833 24.4959V43.1839ZM118.729 43.1839V24.4959C118.729 23.3013 118.132 22.7039 116.937 22.7039H93.3852C92.3612 22.7039 91.8492 23.2586 91.8492 24.3679V43.1839C91.8492 44.2933 92.3612 44.8479 93.3852 44.8479H116.937C118.132 44.8479 118.729 44.2933 118.729 43.1839Z" fill="#FF782C"/>
<path d="M66.2962 86.3199C66.8082 88.2826 66.5095 90.0746 65.4002 91.6959C64.2909 93.2319 62.7122 93.9999 60.6642 93.9999H56.9522C55.7575 93.9999 54.6055 93.6159 53.4962 92.8479C52.4722 92.0799 51.7469 91.1413 51.3202 90.0319L46.4562 75.3119C46.1149 74.2026 45.3895 73.6479 44.2802 73.6479H22.3922C21.2829 73.6479 20.5575 74.2026 20.2162 75.3119L15.3522 90.0319C14.9255 91.1413 14.2002 92.0799 13.1762 92.8479C12.1522 93.6159 11.0002 93.9999 9.7202 93.9999H6.0082C3.9602 93.9999 2.38153 93.2319 1.2722 91.6959C0.0775329 89.9893 -0.178467 88.1973 0.5042 86.3199L25.3362 11.4399C25.7629 10.2453 26.4455 9.30659 27.3842 8.62392C28.4082 7.85592 29.5175 7.47192 30.7122 7.47192H35.9602C37.1549 7.47192 38.2642 7.85592 39.2882 8.62392C40.3122 9.30659 40.9949 10.2453 41.3362 11.4399L66.2962 86.3199ZM40.4402 56.8799L34.0402 37.2959C33.6135 36.6986 33.1442 36.6986 32.6322 37.2959L26.2322 56.8799C26.0615 57.3066 26.1042 57.6906 26.3602 58.0319C26.6162 58.3733 26.9575 58.5439 27.3842 58.5439H39.2882C39.7149 58.5439 40.0562 58.3733 40.3122 58.0319C40.5682 57.6906 40.6109 57.3066 40.4402 56.8799Z" fill="#FF782C"/>
<path fill-rule="evenodd" clip-rule="evenodd" d="M1188.09 9.77592C1185.62 8.23992 1182.8 7.47192 1179.64 7.47192H1147.26C1145.64 7.47192 1144.23 8.02659 1143.03 9.13593C1141.92 10.2453 1141.37 11.6533 1141.37 13.3599V88.1119C1141.37 89.7333 1141.92 91.1413 1143.03 92.3359C1144.23 93.4453 1145.64 93.9999 1147.26 93.9999H1181.43C1184.51 93.9999 1187.32 93.2319 1189.88 91.6959C1192.44 90.1599 1194.49 88.1119 1196.03 85.5519C1197.56 82.9919 1198.33 80.1759 1198.33 77.1039V58.4159C1198.33 54.9173 1197.39 51.7599 1195.51 48.9439C1194.92 48.0053 1194.83 47.0666 1195.26 46.1279C1196.11 44.1653 1196.54 42.0319 1196.54 39.7279V24.4959C1196.54 21.3386 1195.77 18.4799 1194.23 15.9199C1192.7 13.3599 1190.65 11.3119 1188.09 9.77592ZM1192.52 44.9085C1193.19 43.3576 1193.54 41.6427 1193.54 39.7279V24.4959C1193.54 21.8497 1192.9 19.53 1191.66 17.4634C1190.38 15.3257 1188.68 13.6311 1186.55 12.3484L1186.53 12.3368L1186.51 12.3248C1184.55 11.1084 1182.29 10.4719 1179.64 10.4719H1147.26C1146.42 10.4719 1145.75 10.7256 1145.12 11.2956C1144.65 11.7838 1144.37 12.3972 1144.37 13.3599V88.1119C1144.37 88.9349 1144.61 89.5933 1145.16 90.2124C1145.78 90.757 1146.44 90.9999 1147.26 90.9999H1181.43C1183.98 90.9999 1186.26 90.3713 1188.34 89.1235C1190.48 87.8408 1192.17 86.1462 1193.45 84.0084C1194.7 81.9287 1195.33 79.6488 1195.33 77.1039V58.4159C1195.33 55.4884 1194.56 52.9139 1193.02 50.608L1193 50.5815L1192.98 50.5546C1191.9 48.8473 1191.64 46.8474 1192.52 44.9085ZM1184.83 80.3878L1184.71 80.5053C1183.88 81.3287 1182.76 81.8959 1181.43 81.8959H1158.39C1157.38 81.8959 1156.06 81.6396 1155.02 80.6012C1153.99 79.5629 1153.73 78.249 1153.73 77.2319V58.2879C1153.73 57.2708 1153.99 55.957 1155.02 54.9186C1156.06 53.8802 1157.38 53.6239 1158.39 53.6239H1181.43C1182.51 53.6239 1183.85 53.9242 1184.88 55.0306C1185.87 56.0951 1186.1 57.4091 1186.1 58.4159V77.1039C1186.1 78.3834 1185.57 79.4509 1184.93 80.258L1184.83 80.3878ZM1184.43 24.4959V39.7279C1184.43 41.2392 1183.67 42.377 1182.79 43.1183C1181.98 43.8779 1180.91 44.3919 1179.64 44.3919H1158.39C1157.38 44.3919 1156.06 44.1356 1155.02 43.0973C1153.99 42.0589 1153.73 40.745 1153.73 39.7279V24.3679C1153.73 23.3508 1153.99 22.037 1155.02 20.9986C1156.06 19.9602 1157.38 19.7039 1158.39 19.7039H1179.64C1180.91 19.7039 1181.99 20.2187 1182.8 20.9792C1183.81 21.8415 1184.43 23.064 1184.43 24.4959ZM1180.79 23.2159C1181.22 23.5573 1181.43 23.9839 1181.43 24.4959V39.7279C1181.43 40.1546 1181.22 40.5386 1180.79 40.8799C1180.45 41.2213 1180.07 41.3919 1179.64 41.3919H1158.39C1157.28 41.3919 1156.73 40.8373 1156.73 39.7279V24.3679C1156.73 23.2586 1157.28 22.7039 1158.39 22.7039H1179.64C1180.07 22.7039 1180.45 22.8746 1180.79 23.2159ZM1182.59 78.3839C1182.24 78.7253 1181.86 78.8959 1181.43 78.8959H1158.39C1157.28 78.8959 1156.73 78.3413 1156.73 77.2319V58.2879C1156.73 57.1786 1157.28 56.6239 1158.39 56.6239H1181.43C1182.54 56.6239 1183.1 57.2213 1183.1 58.4159V77.1039C1183.1 77.5306 1182.93 77.9573 1182.59 78.3839Z" fill="black"/>
<path fill-rule="evenodd" clip-rule="evenodd" d="M1092.01 8.62392C1091.07 9.30659 1090.39 10.2453 1089.96 11.4399L1065.13 86.3199C1064.45 88.1973 1064.7 89.9893 1065.9 91.6959C1067.01 93.2319 1068.59 93.9999 1070.63 93.9999H1074.35C1075.63 93.9999 1076.78 93.6159 1077.8 92.8479C1078.83 92.0799 1079.55 91.1413 1079.98 90.0319L1084.84 75.3119C1085.18 74.2026 1085.91 73.6479 1087.02 73.6479H1108.91C1110.01 73.6479 1110.74 74.2026 1111.08 75.3119L1115.95 90.0319C1116.37 91.1413 1117.1 92.0799 1118.12 92.8479C1119.23 93.6159 1120.38 93.9999 1121.58 93.9999H1125.29C1127.34 93.9999 1128.92 93.2319 1130.03 91.6959C1131.13 90.0746 1131.43 88.2826 1130.92 86.3199L1105.96 11.4399C1105.62 10.2453 1104.94 9.30659 1103.91 8.62392C1102.89 7.85592 1101.78 7.47192 1100.59 7.47192H1095.34C1094.14 7.47192 1093.03 7.85592 1092.01 8.62392ZM1128.04 87.1638L1103.09 12.3268L1103.08 12.2641C1102.93 11.7467 1102.67 11.4037 1102.25 11.1201L1102.18 11.0739L1102.11 11.0239C1101.57 10.6158 1101.08 10.4719 1100.59 10.4719H1095.34C1094.84 10.4719 1094.35 10.6158 1093.81 11.0239L1093.79 11.0372L1093.77 11.0501C1093.37 11.341 1093.04 11.7565 1092.8 12.4229C1092.79 12.4315 1092.79 12.4402 1092.79 12.4489L1067.98 87.2642L1067.96 87.3049L1067.95 87.3452C1067.62 88.252 1067.69 89.0209 1068.34 89.9593C1068.84 90.6308 1069.47 90.9999 1070.63 90.9999H1074.35C1074.98 90.9999 1075.5 90.8265 1076 90.4479C1076.59 90.0068 1076.94 89.5313 1077.16 89.0107L1081.97 74.4297C1081.98 74.4179 1081.98 74.4061 1081.98 74.3943C1082.29 73.4165 1082.85 72.4202 1083.82 71.6809C1084.81 70.9233 1085.95 70.6479 1087.02 70.6479H1108.91C1109.97 70.6479 1111.11 70.9233 1112.1 71.6809C1113.07 72.4202 1113.63 73.4165 1113.94 74.3943C1113.94 74.4061 1113.94 74.4179 1113.95 74.4297L1118.77 89.0123C1118.97 89.5189 1119.32 89.9828 1119.88 90.4139C1120.53 90.8557 1121.08 90.9999 1121.58 90.9999H1125.29C1126.45 90.9999 1127.08 90.6348 1127.57 89.9703C1128.14 89.1242 1128.31 88.262 1128.04 87.1638ZM1105.07 56.8799C1105.24 57.3066 1105.19 57.6906 1104.94 58.0319C1104.68 58.3733 1104.34 58.5439 1103.91 58.5439H1092.01C1091.58 58.5439 1091.24 58.3733 1090.99 58.0319C1090.73 57.6906 1090.69 57.3066 1090.86 56.8799L1097.26 37.2959C1097.77 36.6986 1098.24 36.6986 1098.67 37.2959L1105.07 56.8799ZM1088.03 55.8798C1087.55 57.1609 1087.67 58.6142 1088.59 59.8319C1089.41 60.9287 1090.64 61.5439 1092.01 61.5439H1103.91C1105.28 61.5439 1106.51 60.9287 1107.34 59.8319C1108.25 58.6142 1108.37 57.1609 1107.89 55.8798L1101.37 35.9267L1101.11 35.5522C1100.66 34.9221 1099.65 33.8479 1097.99 33.8479C1096.44 33.8479 1095.43 34.8145 1094.98 35.3436L1094.59 35.7967L1088.03 55.8798Z" fill="black"/>
<path fill-rule="evenodd" clip-rule="evenodd" d="M1052.76 80.5599C1051.65 79.4506 1050.32 78.8959 1048.79 78.8959H1015.76C1014.74 78.8959 1014.23 78.3413 1014.23 77.2319V13.3599C1014.23 11.6533 1013.63 10.2453 1012.44 9.13593C1011.33 8.02659 1009.96 7.47192 1008.34 7.47192H1004.76C1003.22 7.47192 1001.85 8.02659 1000.66 9.13593C999.55 10.2453 998.995 11.6533 998.995 13.3599V88.1119C998.995 89.7333 999.55 91.1413 1000.66 92.3359C1001.85 93.4453 1003.22 93.9999 1004.76 93.9999H1048.79C1050.32 93.9999 1051.65 93.4453 1052.76 92.3359C1053.95 91.1413 1054.55 89.7333 1054.55 88.1119V84.7839C1054.55 83.0773 1053.95 81.6693 1052.76 80.5599ZM1002.78 90.2128C1003.43 90.785 1004.06 90.9999 1004.76 90.9999H1048.79C1049.51 90.9999 1050.07 90.7748 1050.63 90.2146C1051.29 89.5562 1051.55 88.9011 1051.55 88.1119V84.7839C1051.55 83.8674 1051.27 83.2707 1050.71 82.7583L1050.67 82.7205L1050.63 82.6813C1050.07 82.121 1049.51 81.8959 1048.79 81.8959H1015.76C1014.72 81.8959 1013.41 81.6034 1012.41 80.5148C1011.44 79.4715 1011.23 78.1921 1011.23 77.2319V13.3599C1011.23 12.4434 1010.95 11.8467 1010.39 11.3343L1010.35 11.2965L1010.31 11.2572C1009.79 10.7312 1009.19 10.4719 1008.34 10.4719H1004.76C1004.04 10.4719 1003.4 10.6959 1002.74 11.2952C1002.27 11.7835 1002 12.397 1002 13.3599V88.1119C1002 88.935 1002.24 89.5936 1002.78 90.2128Z" fill="black"/>
<path fill-rule="evenodd" clip-rule="evenodd" d="M914.063 69.1679C912.954 67.9733 911.631 67.3759 910.095 67.3759H906.511C904.89 67.3759 903.482 67.9733 902.287 69.1679C901.178 70.2773 900.623 71.6426 900.623 73.2639V77.1039C900.623 80.1759 901.391 82.9919 902.927 85.5519C904.463 88.1119 906.511 90.1599 909.071 91.6959C911.717 93.2319 914.575 93.9999 917.647 93.9999H942.223C945.295 93.9999 948.111 93.2319 950.671 91.6959C953.231 90.1599 955.279 88.1119 956.815 85.5519C958.351 82.9919 959.119 80.1759 959.119 77.1039V65.4559C959.119 61.9573 958.095 58.7146 956.047 55.7279C953.999 52.7413 951.311 50.6506 947.983 49.4559L917.135 37.9359C916.282 37.6799 915.855 37.0399 915.855 36.0159V24.4959C915.855 23.9839 916.026 23.5573 916.367 23.2159C916.794 22.8746 917.22 22.7039 917.647 22.7039H942.223C943.333 22.7039 943.887 23.3013 943.887 24.4959V27.9519C943.887 29.5733 944.442 30.9386 945.551 32.0479C946.746 33.1573 948.154 33.7119 949.775 33.7119H953.231C954.853 33.7119 956.218 33.1573 957.327 32.0479C958.522 30.9386 959.119 29.5733 959.119 27.9519V24.4959C959.119 21.3386 958.351 18.4799 956.815 15.9199C955.279 13.3599 953.231 11.3119 950.671 9.77592C948.111 8.23992 945.295 7.47192 942.223 7.47192H917.647C914.575 7.47192 911.717 8.23992 909.071 9.77592C906.511 11.3119 904.463 13.3599 902.927 15.9199C901.391 18.4799 900.623 21.3386 900.623 24.4959V36.0159C900.623 39.5999 901.647 42.8853 903.695 45.8719C905.743 48.8586 908.474 50.9493 911.887 52.1439L942.607 63.6639C943.461 63.9199 943.887 64.5173 943.887 65.4559V77.1039C943.887 77.5306 943.717 77.9573 943.375 78.3839C943.034 78.7253 942.65 78.8959 942.223 78.8959H917.647C917.22 78.8959 916.794 78.7253 916.367 78.3839C916.026 77.9573 915.855 77.5306 915.855 77.1039V73.2639C915.855 71.6426 915.258 70.2773 914.063 69.1679ZM943.584 60.8264L912.91 49.3233L912.878 49.3124C910.068 48.3289 907.857 46.6363 906.169 44.1753C904.46 41.6826 903.623 38.9876 903.623 36.0159V24.4959C903.623 21.8497 904.26 19.53 905.5 17.4634C906.779 15.3316 908.467 13.6405 910.597 12.3592C912.777 11.0976 915.109 10.4719 917.647 10.4719H942.223C944.768 10.4719 947.048 11.1005 949.128 12.3484C951.265 13.6311 952.96 15.3257 954.243 17.4634C955.483 19.53 956.119 21.8497 956.119 24.4959V27.9519C956.119 28.7338 955.873 29.3043 955.286 29.8495L955.245 29.8873L955.206 29.9266C954.68 30.4526 954.087 30.7119 953.231 30.7119H949.775C948.934 30.7119 948.265 30.4582 947.634 29.8879C947.134 29.3714 946.887 28.7864 946.887 27.9519V24.4959C946.887 23.4891 946.658 22.1751 945.67 21.1106C944.642 20.0042 943.3 19.7039 942.223 19.7039H917.647C916.368 19.7039 915.3 20.2277 914.493 20.8733L914.363 20.9771L914.246 21.0946C913.305 22.0353 912.855 23.2418 912.855 24.4959V36.0159C912.855 36.9278 913.045 37.9764 913.679 38.928C914.314 39.8807 915.216 40.4676 916.159 40.7738L946.952 52.273L946.97 52.2795C949.689 53.2558 951.872 54.9441 953.573 57.4245C955.291 59.9303 956.119 62.5851 956.119 65.4559V77.1039C956.119 79.6488 955.491 81.9287 954.243 84.0084C952.96 86.1462 951.265 87.8408 949.128 89.1235C947.048 90.3713 944.768 90.9999 942.223 90.9999H917.647C915.11 90.9999 912.777 90.3745 910.597 89.113C908.468 87.8316 906.779 86.1403 905.5 84.0084C904.252 81.9287 903.623 79.6488 903.623 77.1039V73.2639C903.623 72.4085 903.882 71.8153 904.409 71.2893C905.067 70.6308 905.722 70.3759 906.511 70.3759H910.095C910.741 70.3759 911.284 70.5838 911.865 71.2093L911.94 71.2907L912.022 71.3663C912.609 71.9116 912.855 72.482 912.855 73.2639V77.1039C912.855 78.3834 913.379 79.4509 914.025 80.258L914.233 80.5183L914.493 80.7265C915.3 81.3722 916.368 81.8959 917.647 81.8959H942.223C943.553 81.8959 944.673 81.3287 945.497 80.5053L945.614 80.3878L945.718 80.258C946.363 79.4509 946.887 78.3834 946.887 77.1039V65.4559C946.887 64.5359 946.675 63.4934 946.008 62.5602C945.359 61.6517 944.471 61.1135 943.584 60.8264Z" fill="black"/>
<path fill-rule="evenodd" clip-rule="evenodd" d="M848.992 78.3839C848.651 77.9573 848.48 77.5306 848.48 77.1039V24.4959C848.48 23.3013 849.035 22.7039 850.144 22.7039H873.184C874.294 22.7039 874.848 23.3013 874.848 24.4959V27.9519C874.848 29.5733 875.403 30.9386 876.512 32.0479C877.707 33.1573 879.115 33.7119 880.736 33.7119H884.192C885.899 33.7119 887.307 33.1573 888.416 32.0479C889.526 30.9386 890.08 29.5733 890.08 27.9519V24.4959C890.08 21.3386 889.312 18.4799 887.776 15.9199C886.24 13.3599 884.192 11.3119 881.632 9.77592C879.072 8.23992 876.256 7.47192 873.184 7.47192H850.144C847.072 7.47192 844.214 8.23992 841.568 9.77592C839.008 11.3119 836.96 13.3599 835.424 15.9199C833.888 18.4799 833.12 21.3386 833.12 24.4959V77.1039C833.12 80.1759 833.888 82.9919 835.424 85.5519C836.96 88.1119 839.008 90.1599 841.568 91.6959C844.214 93.2319 847.072 93.9999 850.144 93.9999H873.184C876.256 93.9999 879.072 93.2319 881.632 91.6959C884.192 90.1599 886.24 88.1119 887.776 85.5519C889.312 82.9919 890.08 80.1759 890.08 77.1039V73.2639C890.08 71.6426 889.526 70.2773 888.416 69.1679C887.307 67.9733 885.899 67.3759 884.192 67.3759H880.736C879.115 67.3759 877.707 67.9733 876.512 69.1679C875.403 70.2773 874.848 71.6426 874.848 73.2639V77.1039C874.848 77.5306 874.678 77.9573 874.336 78.3839C873.995 78.7253 873.611 78.8959 873.184 78.8959H850.144C849.717 78.8959 849.334 78.7253 848.992 78.3839ZM843.094 89.113C840.965 87.8316 839.276 86.1403 837.997 84.0084C836.749 81.9287 836.12 79.6488 836.12 77.1039V24.4959C836.12 21.8497 836.757 19.53 837.997 17.4634C839.276 15.3316 840.964 13.6405 843.094 12.3592C845.274 11.0976 847.606 10.4719 850.144 10.4719H873.184C875.729 10.4719 878.009 11.1005 880.089 12.3484C882.226 13.6311 883.921 15.3257 885.204 17.4634C886.444 19.53 887.08 21.8497 887.08 24.4959V27.9519C887.08 28.8074 886.821 29.4006 886.295 29.9266C885.8 30.4211 885.18 30.7119 884.192 30.7119H880.736C879.895 30.7119 879.226 30.4581 878.595 29.8879C878.095 29.3714 877.848 28.7864 877.848 27.9519V24.4959C877.848 23.4891 877.619 22.175 876.631 21.1106C875.603 20.0042 874.261 19.7039 873.184 19.7039H850.144C849.068 19.7039 847.725 20.0042 846.698 21.1106C845.709 22.1751 845.48 23.4891 845.48 24.4959V77.1039C845.48 78.3834 846.004 79.4509 846.65 80.258L846.753 80.3878L846.871 80.5053C847.694 81.3287 848.815 81.8959 850.144 81.8959H873.184C874.514 81.8959 875.634 81.3287 876.458 80.5053L876.575 80.3878L876.679 80.258C877.324 79.4509 877.848 78.3834 877.848 77.1039V73.2639C877.848 72.4085 878.107 71.8153 878.633 71.2893C879.292 70.6308 879.947 70.3759 880.736 70.3759H884.192C885.109 70.3759 885.705 70.6575 886.218 71.2093L886.256 71.25L886.295 71.2893C886.821 71.8153 887.08 72.4085 887.08 73.2639V77.1039C887.08 79.6488 886.452 81.9287 885.204 84.0084C883.921 86.1462 882.226 87.8408 880.089 89.1235C878.009 90.3713 875.729 90.9999 873.184 90.9999H850.144C847.607 90.9999 845.274 90.3745 843.094 89.113Z" fill="black"/>
<path fill-rule="evenodd" clip-rule="evenodd" d="M820.938 9.13593C819.829 8.02659 818.463 7.47192 816.842 7.47192H813.386C811.765 7.47192 810.357 8.02659 809.162 9.13593C808.053 10.2453 807.498 11.6533 807.498 13.3599V88.1119C807.498 89.7333 808.053 91.1413 809.162 92.3359C810.357 93.4453 811.765 93.9999 813.386 93.9999H816.842C818.463 93.9999 819.829 93.4453 820.938 92.3359C822.133 91.1413 822.73 89.7333 822.73 88.1119V13.3599C822.73 11.6533 822.133 10.2453 820.938 9.13593ZM811.286 90.212C811.905 90.7569 812.563 90.9999 813.386 90.9999H816.842C817.698 90.9999 818.291 90.7406 818.817 90.2146C819.475 89.5562 819.73 88.9011 819.73 88.1119V13.3599C819.73 12.4434 819.449 11.8467 818.897 11.3343L818.856 11.2965L818.817 11.2572C818.291 10.7312 817.698 10.4719 816.842 10.4719H813.386C812.546 10.4719 811.877 10.7256 811.246 11.2956C810.774 11.7838 810.498 12.3972 810.498 13.3599V88.1119C810.498 88.9347 810.741 89.593 811.286 90.212Z" fill="black"/>
<path fill-rule="evenodd" clip-rule="evenodd" d="M793.26 18.9558C793.83 18.3252 794.083 17.6564 794.083 16.8159V13.3599C794.083 12.3719 793.792 11.7517 793.298 11.2572C792.803 10.7627 792.183 10.4719 791.195 10.4719H745.755C744.915 10.4719 744.246 10.7255 743.615 11.2951C743.143 11.7834 742.867 12.3969 742.867 13.3599V16.8159C742.867 17.6388 743.11 18.2971 743.655 18.9162C744.274 19.4609 744.932 19.7039 745.755 19.7039H759.323C760.34 19.7039 761.654 19.9602 762.693 20.9986C763.731 22.037 763.987 23.3508 763.987 24.3679V88.1119C763.987 88.9347 764.23 89.593 764.775 90.212C765.394 90.7569 766.052 90.9999 766.875 90.9999H770.203C771.059 90.9999 771.652 90.7406 772.178 90.2146C772.836 89.5562 773.091 88.9011 773.091 88.1119V24.3679C773.091 23.3508 773.347 22.037 774.386 20.9986C775.424 19.9602 776.738 19.7039 777.755 19.7039H791.195C792.158 19.7039 792.772 19.4276 793.26 18.9558ZM795.419 21.0399C794.31 22.1493 792.902 22.7039 791.195 22.7039H777.755C776.646 22.7039 776.091 23.2586 776.091 24.3679V88.1119C776.091 89.7333 775.494 91.1413 774.299 92.3359C773.19 93.4453 771.825 93.9999 770.203 93.9999H766.875C765.254 93.9999 763.846 93.4453 762.651 92.3359C761.542 91.1413 760.987 89.7333 760.987 88.1119V24.3679C760.987 23.2586 760.433 22.7039 759.323 22.7039H745.755C744.134 22.7039 742.726 22.1493 741.531 21.0399C740.422 19.8453 739.867 18.4373 739.867 16.8159V13.3599C739.867 11.6533 740.422 10.2453 741.531 9.13593C742.726 8.02659 744.134 7.47192 745.755 7.47192H791.195C792.902 7.47192 794.31 8.02659 795.419 9.13593C796.529 10.2453 797.083 11.6533 797.083 13.3599V16.8159C797.083 18.4373 796.529 19.8453 795.419 21.0399Z" fill="black"/>
<path fill-rule="evenodd" clip-rule="evenodd" d="M684.863 20.9771L684.993 20.8733C685.8 20.2277 686.868 19.7039 688.147 19.7039H712.723C713.8 19.7039 715.142 20.0042 716.17 21.1106C717.158 22.1751 717.387 23.4891 717.387 24.4959V77.1039C717.387 78.3834 716.863 79.4509 716.218 80.258L716.114 80.3878L715.997 80.5053C715.173 81.3287 714.053 81.8959 712.723 81.8959H688.147C686.868 81.8959 685.8 81.3722 684.993 80.7265L684.733 80.5183L684.525 80.258C683.879 79.4509 683.355 78.3834 683.355 77.1039V24.4959C683.355 23.2418 683.805 22.0353 684.746 21.0946L684.863 20.9771ZM724.743 84.0084C725.991 81.9287 726.619 79.6488 726.619 77.1039V24.4959C726.619 21.8497 725.983 19.53 724.743 17.4634C723.46 15.3257 721.765 13.6311 719.628 12.3484C717.548 11.1005 715.268 10.4719 712.723 10.4719H688.147C685.609 10.4719 683.277 11.0976 681.097 12.3592C678.967 13.6405 677.279 15.3316 676 17.4634C674.76 19.53 674.123 21.8497 674.123 24.4959V77.1039C674.123 79.6488 674.752 81.9287 676 84.0084C677.279 86.1403 678.968 87.8316 681.097 89.113C683.277 90.3745 685.61 90.9999 688.147 90.9999H712.723C715.268 90.9999 717.548 90.3713 719.628 89.1235C721.765 87.8408 723.46 86.1462 724.743 84.0084ZM679.571 91.6959C682.217 93.2319 685.075 93.9999 688.147 93.9999H712.723C715.795 93.9999 718.611 93.2319 721.171 91.6959C723.731 90.1599 725.779 88.1119 727.315 85.5519C728.851 82.9919 729.619 80.1759 729.619 77.1039V24.4959C729.619 21.3386 728.851 18.4799 727.315 15.9199C725.779 13.3599 723.731 11.3119 721.171 9.77592C718.611 8.23992 715.795 7.47192 712.723 7.47192H688.147C685.075 7.47192 682.217 8.23992 679.571 9.77592C677.011 11.3119 674.963 13.3599 673.427 15.9199C671.891 18.4799 671.123 21.3386 671.123 24.4959V77.1039C671.123 80.1759 671.891 82.9919 673.427 85.5519C674.963 88.1119 677.011 90.1599 679.571 91.6959ZM686.867 23.2159C687.294 22.8746 687.72 22.7039 688.147 22.7039H712.723C713.833 22.7039 714.387 23.3013 714.387 24.4959V77.1039C714.387 77.5306 714.217 77.9573 713.875 78.3839C713.534 78.7253 713.15 78.8959 712.723 78.8959H688.147C687.72 78.8959 687.294 78.7253 686.867 78.3839C686.526 77.9573 686.355 77.5306 686.355 77.1039V24.4959C686.355 23.9839 686.526 23.5573 686.867 23.2159Z" fill="black"/>
<path fill-rule="evenodd" clip-rule="evenodd" d="M650.34 9.77592C647.866 8.23992 645.05 7.47192 641.892 7.47192H609.508C607.887 7.47192 606.479 8.02659 605.284 9.13593C604.175 10.2453 603.62 11.6533 603.62 13.3599V88.1119C603.62 89.7333 604.175 91.1413 605.284 92.3359C606.479 93.4453 607.887 93.9999 609.508 93.9999H643.684C646.756 93.9999 649.572 93.2319 652.132 91.6959C654.692 90.1599 656.74 88.1119 658.276 85.5519C659.812 82.9919 660.58 80.1759 660.58 77.1039V58.4159C660.58 54.9173 659.641 51.7599 657.764 48.9439C657.167 48.0053 657.082 47.0666 657.508 46.1279C658.362 44.1653 658.788 42.0319 658.788 39.7279V24.4959C658.788 21.3386 658.02 18.4799 656.484 15.9199C654.948 13.3599 652.9 11.3119 650.34 9.77592ZM654.764 44.9158C655.436 43.363 655.788 41.6457 655.788 39.7279V24.4959C655.788 21.8497 655.152 19.53 653.912 17.4634C652.629 15.3257 650.934 13.6311 648.797 12.3484L648.777 12.3368L648.758 12.3248C646.798 11.1084 644.539 10.4719 641.892 10.4719H609.508C608.668 10.4719 607.999 10.7256 607.368 11.2956C606.896 11.7838 606.62 12.3972 606.62 13.3599V88.1119C606.62 88.9347 606.863 89.593 607.408 90.212C608.027 90.7569 608.685 90.9999 609.508 90.9999H643.684C646.229 90.9999 648.509 90.3713 650.589 89.1235C652.726 87.8408 654.421 86.1462 655.704 84.0084C656.952 81.9287 657.58 79.6488 657.58 77.1039V58.4159C657.58 55.4884 656.805 52.9139 655.268 50.608L655.25 50.5815L655.233 50.5546C654.148 48.8493 653.895 46.8525 654.764 44.9158ZM647.075 80.3878L646.958 80.5053C646.134 81.3287 645.014 81.8959 643.684 81.8959H620.644C619.627 81.8959 618.313 81.6396 617.275 80.6012C616.237 79.5629 615.98 78.249 615.98 77.2319V58.2879C615.98 57.2708 616.237 55.957 617.275 54.9186C618.313 53.8802 619.627 53.6239 620.644 53.6239H643.684C644.761 53.6239 646.103 53.9242 647.131 55.0306C648.119 56.0951 648.348 57.4091 648.348 58.4159V77.1039C648.348 78.3834 647.824 79.4509 647.179 80.258L647.075 80.3878ZM646.684 24.4959V39.7279C646.684 41.2389 645.916 42.3765 645.045 43.1178C644.234 43.8777 643.158 44.3919 641.892 44.3919H620.644C619.627 44.3919 618.313 44.1356 617.275 43.0973C616.237 42.0589 615.98 40.745 615.98 39.7279V24.3679C615.98 23.3508 616.237 22.037 617.275 20.9986C618.313 19.9602 619.627 19.7039 620.644 19.7039H641.892C643.159 19.7039 644.236 20.2189 645.047 20.9797C646.055 21.8419 646.684 23.0643 646.684 24.4959ZM643.044 23.2159C643.471 23.5573 643.684 23.9839 643.684 24.4959V39.7279C643.684 40.1546 643.471 40.5386 643.044 40.8799C642.703 41.2213 642.319 41.3919 641.892 41.3919H620.644C619.535 41.3919 618.98 40.8373 618.98 39.7279V24.3679C618.98 23.2586 619.535 22.7039 620.644 22.7039H641.892C642.319 22.7039 642.703 22.8746 643.044 23.2159ZM644.836 78.3839C644.495 78.7253 644.111 78.8959 643.684 78.8959H620.644C619.535 78.8959 618.98 78.3413 618.98 77.2319V58.2879C618.98 57.1786 619.535 56.6239 620.644 56.6239H643.684C644.794 56.6239 645.348 57.2213 645.348 58.4159V77.1039C645.348 77.5306 645.178 77.9573 644.836 78.3839Z" fill="black"/>
<path fill-rule="evenodd" clip-rule="evenodd" d="M548.488 20.9771L548.618 20.8733C549.425 20.2277 550.493 19.7039 551.772 19.7039H576.348C577.425 19.7039 578.767 20.0042 579.795 21.1106C580.783 22.1751 581.012 23.4891 581.012 24.4959V77.1039C581.012 78.3834 580.488 79.4509 579.843 80.258L579.739 80.3878L579.622 80.5053C578.798 81.3287 577.678 81.8959 576.348 81.8959H551.772C550.493 81.8959 549.425 81.3722 548.618 80.7265L548.358 80.5183L548.15 80.258C547.504 79.4509 546.98 78.3834 546.98 77.1039V24.4959C546.98 23.2418 547.43 22.0353 548.371 21.0946L548.488 20.9771ZM588.368 84.0084C589.616 81.9287 590.244 79.6488 590.244 77.1039V24.4959C590.244 21.8497 589.608 19.53 588.368 17.4634C587.085 15.3257 585.39 13.6311 583.253 12.3484C581.173 11.1005 578.893 10.4719 576.348 10.4719H551.772C549.234 10.4719 546.902 11.0976 544.722 12.3592C542.592 13.6405 540.904 15.3316 539.625 17.4634C538.385 19.53 537.748 21.8497 537.748 24.4959V77.1039C537.748 79.6488 538.377 81.9287 539.625 84.0084C540.904 86.1403 542.593 87.8316 544.722 89.113C546.902 90.3745 549.235 90.9999 551.772 90.9999H576.348C578.893 90.9999 581.173 90.3713 583.253 89.1235C585.39 87.8408 587.085 86.1462 588.368 84.0084ZM543.196 91.6959C545.842 93.2319 548.7 93.9999 551.772 93.9999H576.348C579.42 93.9999 582.236 93.2319 584.796 91.6959C587.356 90.1599 589.404 88.1119 590.94 85.5519C592.476 82.9919 593.244 80.1759 593.244 77.1039V24.4959C593.244 21.3386 592.476 18.4799 590.94 15.9199C589.404 13.3599 587.356 11.3119 584.796 9.77592C582.236 8.23992 579.42 7.47192 576.348 7.47192H551.772C548.7 7.47192 545.842 8.23992 543.196 9.77592C540.636 11.3119 538.588 13.3599 537.052 15.9199C535.516 18.4799 534.748 21.3386 534.748 24.4959V77.1039C534.748 80.1759 535.516 82.9919 537.052 85.5519C538.588 88.1119 540.636 90.1599 543.196 91.6959ZM550.492 23.2159C550.919 22.8746 551.345 22.7039 551.772 22.7039H576.348C577.458 22.7039 578.012 23.3013 578.012 24.4959V77.1039C578.012 77.5306 577.842 77.9573 577.5 78.3839C577.159 78.7253 576.775 78.8959 576.348 78.8959H551.772C551.345 78.8959 550.919 78.7253 550.492 78.3839C550.151 77.9573 549.98 77.5306 549.98 77.1039V24.4959C549.98 23.9839 550.151 23.5573 550.492 23.2159Z" fill="black"/>
<path fill-rule="evenodd" clip-rule="evenodd" d="M520.843 87.1081L520.833 87.0838L510.402 61.8969C509.833 60.8155 509.688 59.5399 510.161 58.2839C510.46 57.4318 511.139 56.193 512.568 55.6475C514.829 54.4435 516.63 52.7859 518.011 50.6456L518.018 50.6357L518.024 50.626C519.489 48.394 520.22 45.9388 520.22 43.1839V24.4959C520.22 21.8497 519.584 19.53 518.344 17.4634C517.061 15.3257 515.367 13.6311 513.229 12.3484C511.149 11.1005 508.869 10.4719 506.324 10.4719H471.636C470.804 10.4719 470.221 10.7171 469.705 11.2142C469.282 11.6917 469.004 12.333 469.004 13.3599V88.1119C469.004 88.9971 469.25 89.683 469.743 90.2934C470.249 90.7665 470.825 90.9999 471.636 90.9999H475.22C476.076 90.9999 476.669 90.7406 477.195 90.2146C477.853 89.5562 478.108 88.9011 478.108 88.1119V61.7439C478.108 60.7268 478.365 59.413 479.403 58.3746C480.441 57.3362 481.755 57.0799 482.772 57.0799H494.676C495.702 57.0799 496.779 57.3219 497.748 57.9678C498.717 58.6137 499.355 59.5153 499.749 60.4621L511.781 89.2621C511.951 89.6698 512.25 90.0676 512.808 90.45C513.506 90.87 514.063 90.9999 514.516 90.9999H518.356C519.214 90.9999 519.971 90.6882 520.76 89.5943C521.214 88.9199 521.333 88.2365 520.853 87.1321L520.843 87.1081ZM523.22 91.3119C521.94 93.1039 520.319 93.9999 518.356 93.9999H514.516C513.407 93.9999 512.298 93.6586 511.188 92.9759C510.164 92.2933 509.439 91.4399 509.012 90.4159L496.98 61.6159C496.554 60.5919 495.786 60.0799 494.676 60.0799H482.772C481.663 60.0799 481.108 60.6346 481.108 61.7439V88.1119C481.108 89.7333 480.511 91.1413 479.316 92.3359C478.207 93.4453 476.842 93.9999 475.22 93.9999H471.636C470.015 93.9999 468.65 93.4453 467.54 92.3359C466.516 91.1413 466.004 89.7333 466.004 88.1119V13.3599C466.004 11.6533 466.516 10.2453 467.54 9.13593C468.65 8.02659 470.015 7.47192 471.636 7.47192H506.324C509.396 7.47192 512.212 8.23992 514.772 9.77592C517.332 11.3119 519.38 13.3599 520.916 15.9199C522.452 18.4799 523.22 21.3386 523.22 24.4959V43.1839C523.22 46.5119 522.324 49.5413 520.532 52.2719C518.826 54.9173 516.564 56.9653 513.748 58.4159C513.407 58.5013 513.151 58.7999 512.98 59.3119C512.81 59.7386 512.852 60.1653 513.108 60.5919L523.604 85.9359C524.458 87.8986 524.33 89.6906 523.22 91.3119ZM510.988 24.4959V43.1839C510.988 44.201 510.732 45.5149 509.694 46.5533C508.655 47.5916 507.341 47.8479 506.324 47.8479H482.772C481.755 47.8479 480.441 47.5916 479.403 46.5533C478.365 45.5149 478.108 44.201 478.108 43.1839V24.3679C478.108 23.3508 478.365 22.037 479.403 20.9986C480.441 19.9602 481.755 19.7039 482.772 19.7039H506.324C507.401 19.7039 508.743 20.0042 509.771 21.1106C510.759 22.175 510.988 23.4891 510.988 24.4959ZM507.988 24.4959V43.1839C507.988 44.2933 507.434 44.8479 506.324 44.8479H482.772C481.663 44.8479 481.108 44.2933 481.108 43.1839V24.3679C481.108 23.2586 481.663 22.7039 482.772 22.7039H506.324C507.434 22.7039 507.988 23.3013 507.988 24.4959Z" fill="black"/>
<path fill-rule="evenodd" clip-rule="evenodd" d="M412.2 80.3878L412.083 80.5053C411.259 81.3287 410.139 81.8959 408.809 81.8959H385.769C384.752 81.8959 383.438 81.6396 382.4 80.6012C381.362 79.5629 381.105 78.249 381.105 77.2319V24.3679C381.105 23.3508 381.362 22.037 382.4 20.9986C383.438 19.9602 384.752 19.7039 385.769 19.7039H408.809C409.886 19.7039 411.228 20.0042 412.256 21.1106C413.244 22.175 413.473 23.4891 413.473 24.4959V77.1039C413.473 78.3834 412.949 79.4509 412.304 80.258L412.2 80.3878ZM420.829 84.0084C422.077 81.9287 422.705 79.6488 422.705 77.1039V24.4959C422.705 21.8497 422.069 19.53 420.829 17.4634C419.546 15.3257 417.851 13.6311 415.714 12.3484C413.634 11.1005 411.354 10.4719 408.809 10.4719H374.633C373.793 10.4719 373.124 10.7256 372.493 11.2953C372.021 11.7836 371.745 12.3971 371.745 13.3599V88.1119C371.745 88.9348 371.988 89.5931 372.533 90.2122C373.152 90.7569 373.81 90.9999 374.633 90.9999H408.809C411.354 90.9999 413.634 90.3713 415.714 89.1235C417.851 87.8408 419.546 86.1462 420.829 84.0084ZM370.409 92.3359C371.604 93.4453 373.012 93.9999 374.633 93.9999H408.809C411.881 93.9999 414.697 93.2319 417.257 91.6959C419.817 90.1599 421.865 88.1119 423.401 85.5519C424.937 82.9919 425.705 80.1759 425.705 77.1039V24.4959C425.705 21.3386 424.937 18.4799 423.401 15.9199C421.865 13.3599 419.817 11.3119 417.257 9.77592C414.697 8.23992 411.881 7.47192 408.809 7.47192H374.633C373.012 7.47192 371.604 8.02659 370.409 9.13593C369.3 10.2453 368.745 11.6533 368.745 13.3599V88.1119C368.745 89.7333 369.3 91.1413 370.409 92.3359ZM409.961 78.3839C409.62 78.7253 409.236 78.8959 408.809 78.8959H385.769C384.66 78.8959 384.105 78.3413 384.105 77.2319V24.3679C384.105 23.2586 384.66 22.7039 385.769 22.7039H408.809C409.919 22.7039 410.473 23.3013 410.473 24.4959V77.1039C410.473 77.5306 410.303 77.9573 409.961 78.3839Z" fill="black"/>
<path fill-rule="evenodd" clip-rule="evenodd" d="M354.673 11.2965L354.634 11.2572C354.074 10.697 353.509 10.4719 352.787 10.4719H308.755C308.041 10.4719 307.405 10.6958 306.743 11.295C306.272 11.7833 305.995 12.3968 305.995 13.3599V88.1119C305.995 88.9351 306.238 89.5937 306.784 90.213C307.431 90.7851 308.056 90.9999 308.755 90.9999H352.787C353.509 90.9999 354.074 90.7748 354.634 90.2146C355.292 89.5562 355.547 88.9011 355.547 88.1119V84.7839C355.547 83.8674 355.266 83.2707 354.714 82.7583L354.673 82.7205L354.634 82.6813C354.074 82.121 353.509 81.8959 352.787 81.8959H319.763C318.724 81.8959 317.412 81.6034 316.407 80.5148C315.444 79.4715 315.227 78.1921 315.227 77.2319V59.9519C315.227 58.9775 315.473 57.6956 316.49 56.6786C317.507 55.6616 318.789 55.4159 319.763 55.4159H348.179C349.142 55.4159 349.755 55.1397 350.244 54.6681C350.814 54.0374 351.067 53.3685 351.067 52.5279V48.9439C351.067 48.0885 350.808 47.4953 350.282 46.9693C349.787 46.4748 349.167 46.1839 348.179 46.1839H319.763C318.658 46.1839 317.32 45.8398 316.333 44.6883C315.422 43.6253 315.227 42.3482 315.227 41.3919V24.3679C315.227 23.4078 315.444 22.1284 316.407 21.0851C317.412 19.9964 318.724 19.7039 319.763 19.7039H352.787C353.509 19.7039 354.074 19.4788 354.634 18.9186C355.292 18.2602 355.547 17.6051 355.547 16.8159V13.3599C355.547 12.4434 355.266 11.8467 354.714 11.3343L354.673 11.2965ZM352.403 56.7519C353.513 55.5573 354.067 54.1493 354.067 52.5279V48.9439C354.067 47.3226 353.513 45.9573 352.403 44.8479C351.294 43.7386 349.886 43.1839 348.179 43.1839H319.763C318.739 43.1839 318.227 42.5866 318.227 41.3919V24.3679C318.227 23.2586 318.739 22.7039 319.763 22.7039H352.787C354.323 22.7039 355.646 22.1493 356.755 21.0399C357.95 19.8453 358.547 18.4373 358.547 16.8159V13.3599C358.547 11.6533 357.95 10.2453 356.755 9.13593C355.646 8.02659 354.323 7.47192 352.787 7.47192H308.755C307.219 7.47192 305.854 8.02659 304.659 9.13593C303.55 10.2453 302.995 11.6533 302.995 13.3599V88.1119C302.995 89.7333 303.55 91.1413 304.659 92.3359C305.854 93.4453 307.219 93.9999 308.755 93.9999H352.787C354.323 93.9999 355.646 93.4453 356.755 92.3359C357.95 91.1413 358.547 89.7333 358.547 88.1119V84.7839C358.547 83.0773 357.95 81.6693 356.755 80.5599C355.646 79.4506 354.323 78.8959 352.787 78.8959H319.763C318.739 78.8959 318.227 78.3413 318.227 77.2319V59.9519C318.227 58.9279 318.739 58.4159 319.763 58.4159H348.179C349.886 58.4159 351.294 57.8613 352.403 56.7519Z" fill="black"/>
<path fill-rule="evenodd" clip-rule="evenodd" d="M290.813 9.13593C289.704 8.02659 288.339 7.47192 286.717 7.47192H283.261C281.64 7.47192 280.232 8.02659 279.037 9.13593C277.928 10.2453 277.373 11.6533 277.373 13.3599V88.1119C277.373 89.7333 277.928 91.1413 279.037 92.3359C280.232 93.4453 281.64 93.9999 283.261 93.9999H286.717C288.339 93.9999 289.704 93.4453 290.813 92.3359C292.008 91.1413 292.605 89.7333 292.605 88.1119V13.3599C292.605 11.6533 292.008 10.2453 290.813 9.13593ZM281.161 90.2122C281.78 90.757 282.438 90.9999 283.261 90.9999H286.717C287.573 90.9999 288.166 90.7406 288.692 90.2146C289.35 89.5562 289.605 88.9011 289.605 88.1119V13.3599C289.605 12.4434 289.324 11.8467 288.772 11.3343L288.731 11.2965L288.692 11.2572C288.166 10.7312 287.573 10.4719 286.717 10.4719H283.261C282.421 10.4719 281.752 10.7256 281.121 11.2955C280.649 11.7838 280.373 12.3972 280.373 13.3599V88.1119C280.373 88.9348 280.616 89.5931 281.161 90.2122Z" fill="black"/>
<path fill-rule="evenodd" clip-rule="evenodd" d="M224.935 9.13593C223.826 8.02659 222.461 7.47192 220.839 7.47192H217.255C215.719 7.47192 214.354 8.02659 213.159 9.13593C212.05 10.2453 211.495 11.6533 211.495 13.3599V88.1119C211.495 89.7333 212.05 91.1413 213.159 92.3359C214.354 93.4453 215.719 93.9999 217.255 93.9999H261.287C262.823 93.9999 264.146 93.4453 265.255 92.3359C266.45 91.1413 267.047 89.7333 267.047 88.1119V84.7839C267.047 83.0773 266.45 81.6693 265.255 80.5599C264.146 79.4506 262.823 78.8959 261.287 78.8959H228.263C227.239 78.8959 226.727 78.3413 226.727 77.2319V13.3599C226.727 11.6533 226.13 10.2453 224.935 9.13593ZM215.284 90.2129C215.931 90.7851 216.556 90.9999 217.255 90.9999H261.287C262.009 90.9999 262.574 90.7748 263.134 90.2146C263.792 89.5562 264.047 88.9011 264.047 88.1119V84.7839C264.047 83.8674 263.766 83.2707 263.214 82.7583L263.173 82.7205L263.134 82.6813C262.574 82.121 262.009 81.8959 261.287 81.8959H228.263C227.224 81.8959 225.912 81.6034 224.907 80.5148C223.944 79.4715 223.727 78.1921 223.727 77.2319V13.3599C223.727 12.4434 223.446 11.8467 222.894 11.3343L222.853 11.2965L222.814 11.2572C222.288 10.7312 221.695 10.4719 220.839 10.4719H217.255C216.541 10.4719 215.905 10.6958 215.243 11.2951C214.771 11.7834 214.495 12.3969 214.495 13.3599V88.1119C214.495 88.9351 214.738 89.5937 215.284 90.2129Z" fill="black"/>
<path fill-rule="evenodd" clip-rule="evenodd" d="M196.313 50.1204L196.332 50.0884C197.58 48.0087 198.208 45.7287 198.208 43.1839V24.4959C198.208 21.8497 197.572 19.53 196.332 17.4634L196.313 17.4314L196.294 17.399C195.103 15.2962 193.468 13.6221 191.345 12.3484C189.278 11.1085 186.958 10.4719 184.312 10.4719H149.88C149.04 10.4719 148.371 10.7256 147.74 11.2954C147.268 11.7837 146.992 12.3971 146.992 13.3599V88.1119C146.992 88.9347 147.235 89.5931 147.78 90.2121C148.399 90.7569 149.057 90.9999 149.88 90.9999H153.336C154.192 90.9999 154.785 90.7406 155.311 90.2146C155.969 89.5562 156.224 88.9011 156.224 88.1119V61.7439C156.224 60.7838 156.441 59.5044 157.404 58.4611C158.409 57.3724 159.721 57.0799 160.76 57.0799H184.312C186.958 57.0799 189.278 56.4434 191.345 55.2035C193.468 53.9297 195.103 52.2556 196.294 50.1529L196.313 50.1204ZM145.656 92.3359C144.547 91.1413 143.992 89.7333 143.992 88.1119V13.3599C143.992 11.6533 144.547 10.2453 145.656 9.13593C146.851 8.02659 148.259 7.47192 149.88 7.47192H184.312C187.47 7.47192 190.328 8.23992 192.888 9.77592C195.448 11.3119 197.454 13.3599 198.904 15.9199C200.44 18.4799 201.208 21.3386 201.208 24.4959V43.1839C201.208 46.2559 200.44 49.0719 198.904 51.6319C197.454 54.1919 195.448 56.2399 192.888 57.7759C190.328 59.3119 187.47 60.0799 184.312 60.0799H160.76C159.736 60.0799 159.224 60.6346 159.224 61.7439V88.1119C159.224 89.7333 158.627 91.1413 157.432 92.3359C156.323 93.4453 154.958 93.9999 153.336 93.9999H149.88C148.259 93.9999 146.851 93.4453 145.656 92.3359ZM189.104 24.4959V43.1839C189.104 44.2604 188.804 45.6029 187.698 46.6303C186.633 47.6188 185.319 47.8479 184.312 47.8479H160.76C159.721 47.8479 158.409 47.5554 157.404 46.4668C156.441 45.4235 156.224 44.1441 156.224 43.1839V24.3679C156.224 23.4078 156.441 22.1284 157.404 21.0851C158.409 19.9964 159.721 19.7039 160.76 19.7039H184.312C185.372 19.7039 186.718 19.9709 187.778 21.0306C188.837 22.0903 189.104 23.4362 189.104 24.4959ZM186.104 24.4959V43.1839C186.104 44.2933 185.507 44.8479 184.312 44.8479H160.76C159.736 44.8479 159.224 44.2933 159.224 43.1839V24.3679C159.224 23.2586 159.736 22.7039 160.76 22.7039H184.312C185.507 22.7039 186.104 23.3013 186.104 24.4959Z" fill="black"/>
<path fill-rule="evenodd" clip-rule="evenodd" d="M128.938 50.1204L128.957 50.0884C130.205 48.0087 130.833 45.7287 130.833 43.1839V24.4959C130.833 21.8497 130.197 19.53 128.957 17.4634L128.938 17.4314L128.919 17.399C127.728 15.2962 126.093 13.6221 123.97 12.3484C121.903 11.1085 119.583 10.4719 116.937 10.4719H82.5052C81.6646 10.4719 80.9957 10.7255 80.365 11.2955C79.8933 11.7837 79.6172 12.3972 79.6172 13.3599V88.1119C79.6172 88.9347 79.8602 89.5931 80.405 90.2121C81.024 90.7569 81.6824 90.9999 82.5052 90.9999H85.9612C86.8166 90.9999 87.4099 90.7406 87.9359 90.2146C88.5943 89.5562 88.8492 88.9011 88.8492 88.1119V61.7439C88.8492 60.7838 89.0658 59.5044 90.0288 58.4611C91.0337 57.3724 92.3464 57.0799 93.3852 57.0799H116.937C119.583 57.0799 121.903 56.4434 123.97 55.2035C126.093 53.9297 127.728 52.2556 128.919 50.1529L128.938 50.1204ZM78.2812 92.3359C79.4759 93.4453 80.8839 93.9999 82.5052 93.9999H85.9612C87.5825 93.9999 88.9479 93.4453 90.0572 92.3359C91.2519 91.1413 91.8492 89.7333 91.8492 88.1119V61.7439C91.8492 60.6346 92.3612 60.0799 93.3852 60.0799H116.937C120.095 60.0799 122.953 59.3119 125.513 57.7759C128.073 56.2399 130.079 54.1919 131.529 51.6319C133.065 49.0719 133.833 46.2559 133.833 43.1839V24.4959C133.833 21.3386 133.065 18.4799 131.529 15.9199C130.079 13.3599 128.073 11.3119 125.513 9.77592C122.953 8.23992 120.095 7.47192 116.937 7.47192H82.5052C80.8839 7.47192 79.4759 8.02659 78.2812 9.13593C77.1719 10.2453 76.6172 11.6533 76.6172 13.3599V88.1119C76.6172 89.7333 77.1719 91.1413 78.2812 92.3359ZM121.729 24.4959V43.1839C121.729 44.2604 121.429 45.6029 120.323 46.6303C119.258 47.6188 117.944 47.8479 116.937 47.8479H93.3852C92.3464 47.8479 91.0337 47.5554 90.0288 46.4668C89.0658 45.4235 88.8492 44.1441 88.8492 43.1839V24.3679C88.8492 23.4078 89.0658 22.1284 90.0288 21.0851C91.0337 19.9964 92.3464 19.7039 93.3852 19.7039H116.937C117.997 19.7039 119.343 19.9709 120.403 21.0306C121.462 22.0903 121.729 23.4362 121.729 24.4959ZM118.729 24.4959V43.1839C118.729 44.2933 118.132 44.8479 116.937 44.8479H93.3852C92.3612 44.8479 91.8492 44.2933 91.8492 43.1839V24.3679C91.8492 23.2586 92.3612 22.7039 93.3852 22.7039H116.937C118.132 22.7039 118.729 23.3013 118.729 24.4959Z" fill="black"/>
<path fill-rule="evenodd" clip-rule="evenodd" d="M0.5042 86.3199C-0.178467 88.1973 0.0775329 89.9893 1.2722 91.6959C2.38153 93.2319 3.9602 93.9999 6.0082 93.9999H9.7202C11.0002 93.9999 12.1522 93.6159 13.1762 92.8479C14.2002 92.0799 14.9255 91.1413 15.3522 90.0319L20.2162 75.3119C20.5575 74.2026 21.2829 73.6479 22.3922 73.6479H44.2802C45.3895 73.6479 46.1149 74.2026 46.4562 75.3119L51.3202 90.0319C51.7469 91.1413 52.4722 92.0799 53.4962 92.8479C54.6055 93.6159 55.7575 93.9999 56.9522 93.9999H60.6642C62.7122 93.9999 64.2909 93.2319 65.4002 91.6959C66.5095 90.0746 66.8082 88.2826 66.2962 86.3199L41.3362 11.4399C40.9949 10.2453 40.3122 9.30659 39.2882 8.62392C38.2642 7.85592 37.1549 7.47192 35.9602 7.47192H30.7122C29.5175 7.47192 28.4082 7.85592 27.3842 8.62392C26.4455 9.30659 25.7629 10.2453 25.3362 11.4399L0.5042 86.3199ZM28.1715 12.4209C28.4142 11.7557 28.7491 11.3408 29.1487 11.0501L29.1666 11.0372L29.1842 11.0239C29.7284 10.6158 30.2143 10.4719 30.7122 10.4719H35.9602C36.4581 10.4719 36.944 10.6158 37.4882 11.0239L37.5548 11.0739L37.6241 11.1201C38.0496 11.4037 38.3038 11.7467 38.4516 12.2641L38.4695 12.3268L63.4151 87.1633C63.6821 88.2613 63.5146 89.1235 62.9463 89.9694C62.4554 90.6345 61.8226 90.9999 60.6642 90.9999H56.9522C56.4567 90.9999 55.9053 90.8557 55.2511 90.4137C54.69 89.9823 54.3485 89.5181 54.1424 89.0111L49.3129 74.3956C49.0062 73.4173 48.4458 72.4205 47.4786 71.6809C46.4879 70.9233 45.3482 70.6479 44.2802 70.6479H22.3922C21.3242 70.6479 20.1846 70.9233 19.1939 71.6809C18.2266 72.4205 17.6662 73.4173 17.3595 74.3956L12.53 89.0111C12.3185 89.5316 11.9642 90.0069 11.3762 90.4479C10.8715 90.8265 10.3511 90.9999 9.7202 90.9999H6.0082C4.84238 90.9999 4.20901 90.6299 3.71674 89.9567C3.06674 89.0193 2.99411 88.2512 3.32358 87.3452L3.33822 87.3049L28.1715 12.4209ZM40.4402 56.8799C40.6109 57.3066 40.5682 57.6906 40.3122 58.0319C40.0562 58.3733 39.7149 58.5439 39.2882 58.5439H27.3842C26.9575 58.5439 26.6162 58.3733 26.3602 58.0319C26.1042 57.6906 26.0615 57.3066 26.2322 56.8799L32.6322 37.2959C33.1442 36.6986 33.6135 36.6986 34.0402 37.2959L40.4402 56.8799ZM23.4029 55.8798C22.9297 57.1609 23.0469 58.6142 23.9602 59.8319C24.7828 60.9287 26.0133 61.5439 27.3842 61.5439H39.2882C40.6591 61.5439 41.8896 60.9287 42.7122 59.8319C43.6255 58.6142 43.7427 57.1609 43.2695 55.8798L36.7489 35.9267L36.4814 35.5522C36.0313 34.9221 35.0223 33.8479 33.3682 33.8479C31.8135 33.8479 30.8079 34.8145 30.3544 35.3436L29.966 35.7967L23.4029 55.8798Z" fill="black"/>
<path d="M1198.33 70.1039C1198.33 73.1759 1197.56 75.9919 1196.03 78.5519C1194.49 81.1119 1192.44 83.1599 1189.88 84.6959C1187.32 86.2319 1184.51 86.9999 1181.43 86.9999H1147.26C1145.64 86.9999 1144.23 86.4453 1143.03 85.3359C1141.92 84.1413 1141.37 82.7333 1141.37 81.1119V6.35992C1141.37 4.65326 1141.92 3.24526 1143.03 2.13593C1144.23 1.02659 1145.64 0.471924 1147.26 0.471924H1179.64C1182.8 0.471924 1185.62 1.23992 1188.09 2.77592C1190.65 4.31193 1192.7 6.35993 1194.23 8.91993C1195.77 11.4799 1196.54 14.3386 1196.54 17.4959V32.7279C1196.54 35.0319 1196.11 37.1653 1195.26 39.1279C1194.83 40.0666 1194.92 41.0053 1195.51 41.9439C1197.39 44.7599 1198.33 47.9173 1198.33 51.4159V70.1039ZM1181.43 32.7279V17.4959C1181.43 16.9839 1181.22 16.5573 1180.79 16.2159C1180.45 15.8746 1180.07 15.7039 1179.64 15.7039H1158.39C1157.28 15.7039 1156.73 16.2586 1156.73 17.3679V32.7279C1156.73 33.8373 1157.28 34.3919 1158.39 34.3919H1179.64C1180.07 34.3919 1180.45 34.2213 1180.79 33.8799C1181.22 33.5386 1181.43 33.1546 1181.43 32.7279ZM1183.1 70.1039V51.4159C1183.1 50.2213 1182.54 49.6239 1181.43 49.6239H1158.39C1157.28 49.6239 1156.73 50.1786 1156.73 51.2879V70.2319C1156.73 71.3413 1157.28 71.8959 1158.39 71.8959H1181.43C1181.86 71.8959 1182.24 71.7253 1182.59 71.3839C1182.93 70.9573 1183.1 70.5306 1183.1 70.1039Z" fill="black"/>
<path d="M1130.92 79.3199C1131.43 81.2826 1131.13 83.0746 1130.03 84.6959C1128.92 86.2319 1127.34 86.9999 1125.29 86.9999H1121.58C1120.38 86.9999 1119.23 86.6159 1118.12 85.8479C1117.1 85.0799 1116.37 84.1413 1115.95 83.0319L1111.08 68.3119C1110.74 67.2026 1110.01 66.6479 1108.91 66.6479H1087.02C1085.91 66.6479 1085.18 67.2026 1084.84 68.3119L1079.98 83.0319C1079.55 84.1413 1078.83 85.0799 1077.8 85.8479C1076.78 86.6159 1075.63 86.9999 1074.35 86.9999H1070.63C1068.59 86.9999 1067.01 86.2319 1065.9 84.6959C1064.7 82.9893 1064.45 81.1973 1065.13 79.3199L1089.96 4.43993C1090.39 3.24526 1091.07 2.30659 1092.01 1.62392C1093.03 0.855924 1094.14 0.471924 1095.34 0.471924H1100.59C1101.78 0.471924 1102.89 0.855924 1103.91 1.62392C1104.94 2.30659 1105.62 3.24526 1105.96 4.43993L1130.92 79.3199ZM1105.07 49.8799L1098.67 30.2959C1098.24 29.6986 1097.77 29.6986 1097.26 30.2959L1090.86 49.8799C1090.69 50.3066 1090.73 50.6906 1090.99 51.0319C1091.24 51.3733 1091.58 51.5439 1092.01 51.5439H1103.91C1104.34 51.5439 1104.68 51.3733 1104.94 51.0319C1105.19 50.6906 1105.24 50.3066 1105.07 49.8799Z" fill="black"/>
<path d="M1054.55 81.1119C1054.55 82.7333 1053.95 84.1413 1052.76 85.3359C1051.65 86.4453 1050.32 86.9999 1048.79 86.9999H1004.76C1003.22 86.9999 1001.85 86.4453 1000.66 85.3359C999.55 84.1413 998.995 82.7333 998.995 81.1119V6.35992C998.995 4.65326 999.55 3.24526 1000.66 2.13593C1001.85 1.02659 1003.22 0.471924 1004.76 0.471924H1008.34C1009.96 0.471924 1011.33 1.02659 1012.44 2.13593C1013.63 3.24526 1014.23 4.65326 1014.23 6.35992V70.2319C1014.23 71.3413 1014.74 71.8959 1015.76 71.8959H1048.79C1050.32 71.8959 1051.65 72.4506 1052.76 73.5599C1053.95 74.6693 1054.55 76.0773 1054.55 77.7839V81.1119Z" fill="black"/>
<path d="M959.119 70.1039C959.119 73.1759 958.351 75.9919 956.815 78.5519C955.279 81.1119 953.231 83.1599 950.671 84.6959C948.111 86.2319 945.295 86.9999 942.223 86.9999H917.647C914.575 86.9999 911.717 86.2319 909.071 84.6959C906.511 83.1599 904.463 81.1119 902.927 78.5519C901.391 75.9919 900.623 73.1759 900.623 70.1039V66.2639C900.623 64.6426 901.178 63.2773 902.287 62.1679C903.482 60.9733 904.89 60.3759 906.511 60.3759H910.095C911.631 60.3759 912.954 60.9733 914.063 62.1679C915.258 63.2773 915.855 64.6426 915.855 66.2639V70.1039C915.855 70.5306 916.026 70.9573 916.367 71.3839C916.794 71.7253 917.22 71.8959 917.647 71.8959H942.223C942.65 71.8959 943.034 71.7253 943.375 71.3839C943.717 70.9573 943.887 70.5306 943.887 70.1039V58.4559C943.887 57.5173 943.461 56.9199 942.607 56.6639L911.887 45.1439C908.474 43.9493 905.743 41.8586 903.695 38.8719C901.647 35.8853 900.623 32.5999 900.623 29.0159V17.4959C900.623 14.3386 901.391 11.4799 902.927 8.91993C904.463 6.35993 906.511 4.31193 909.071 2.77592C911.717 1.23992 914.575 0.471924 917.647 0.471924H942.223C945.295 0.471924 948.111 1.23992 950.671 2.77592C953.231 4.31193 955.279 6.35993 956.815 8.91993C958.351 11.4799 959.119 14.3386 959.119 17.4959V20.9519C959.119 22.5733 958.522 23.9386 957.327 25.0479C956.218 26.1573 954.853 26.7119 953.231 26.7119H949.775C948.154 26.7119 946.746 26.1573 945.551 25.0479C944.442 23.9386 943.887 22.5733 943.887 20.9519V17.4959C943.887 16.3013 943.333 15.7039 942.223 15.7039H917.647C917.22 15.7039 916.794 15.8746 916.367 16.2159C916.026 16.5573 915.855 16.9839 915.855 17.4959V29.0159C915.855 30.0399 916.282 30.6799 917.135 30.9359L947.983 42.4559C951.311 43.6506 953.999 45.7413 956.047 48.7279C958.095 51.7146 959.119 54.9573 959.119 58.4559V70.1039Z" fill="black"/>
<path d="M890.08 70.1039C890.08 73.1759 889.312 75.9919 887.776 78.5519C886.24 81.1119 884.192 83.1599 881.632 84.6959C879.072 86.2319 876.256 86.9999 873.184 86.9999H850.144C847.072 86.9999 844.214 86.2319 841.568 84.6959C839.008 83.1599 836.96 81.1119 835.424 78.5519C833.888 75.9919 833.12 73.1759 833.12 70.1039V17.4959C833.12 14.3386 833.888 11.4799 835.424 8.91993C836.96 6.35993 839.008 4.31193 841.568 2.77592C844.214 1.23992 847.072 0.471924 850.144 0.471924H873.184C876.256 0.471924 879.072 1.23992 881.632 2.77592C884.192 4.31193 886.24 6.35993 887.776 8.91993C889.312 11.4799 890.08 14.3386 890.08 17.4959V20.9519C890.08 22.5733 889.526 23.9386 888.416 25.0479C887.307 26.1573 885.899 26.7119 884.192 26.7119H880.736C879.115 26.7119 877.707 26.1573 876.512 25.0479C875.403 23.9386 874.848 22.5733 874.848 20.9519V17.4959C874.848 16.3013 874.294 15.7039 873.184 15.7039H850.144C849.035 15.7039 848.48 16.3013 848.48 17.4959V70.1039C848.48 70.5306 848.651 70.9573 848.992 71.3839C849.334 71.7253 849.717 71.8959 850.144 71.8959H873.184C873.611 71.8959 873.995 71.7253 874.336 71.3839C874.678 70.9573 874.848 70.5306 874.848 70.1039V66.2639C874.848 64.6426 875.403 63.2773 876.512 62.1679C877.707 60.9733 879.115 60.3759 880.736 60.3759H884.192C885.899 60.3759 887.307 60.9733 888.416 62.1679C889.526 63.2773 890.08 64.6426 890.08 66.2639V70.1039Z" fill="black"/>
<path d="M822.73 81.1119C822.73 82.7333 822.133 84.1413 820.938 85.3359C819.829 86.4453 818.463 86.9999 816.842 86.9999H813.386C811.765 86.9999 810.357 86.4453 809.162 85.3359C808.053 84.1413 807.498 82.7333 807.498 81.1119V6.35992C807.498 4.65326 808.053 3.24526 809.162 2.13593C810.357 1.02659 811.765 0.471924 813.386 0.471924H816.842C818.463 0.471924 819.829 1.02659 820.938 2.13593C822.133 3.24526 822.73 4.65326 822.73 6.35992V81.1119Z" fill="black"/>
<path d="M797.083 9.81593C797.083 11.4373 796.529 12.8453 795.419 14.0399C794.31 15.1493 792.902 15.7039 791.195 15.7039H777.755C776.646 15.7039 776.091 16.2586 776.091 17.3679V81.1119C776.091 82.7333 775.494 84.1413 774.299 85.3359C773.19 86.4453 771.825 86.9999 770.203 86.9999H766.875C765.254 86.9999 763.846 86.4453 762.651 85.3359C761.542 84.1413 760.987 82.7333 760.987 81.1119V17.3679C760.987 16.2586 760.433 15.7039 759.323 15.7039H745.755C744.134 15.7039 742.726 15.1493 741.531 14.0399C740.422 12.8453 739.867 11.4373 739.867 9.81593V6.35992C739.867 4.65326 740.422 3.24526 741.531 2.13593C742.726 1.02659 744.134 0.471924 745.755 0.471924H791.195C792.902 0.471924 794.31 1.02659 795.419 2.13593C796.529 3.24526 797.083 4.65326 797.083 6.35992V9.81593Z" fill="black"/>
<path d="M729.619 70.1039C729.619 73.1759 728.851 75.9919 727.315 78.5519C725.779 81.1119 723.731 83.1599 721.171 84.6959C718.611 86.2319 715.795 86.9999 712.723 86.9999H688.147C685.075 86.9999 682.217 86.2319 679.571 84.6959C677.011 83.1599 674.963 81.1119 673.427 78.5519C671.891 75.9919 671.123 73.1759 671.123 70.1039V17.4959C671.123 14.3386 671.891 11.4799 673.427 8.91993C674.963 6.35993 677.011 4.31193 679.571 2.77592C682.217 1.23992 685.075 0.471924 688.147 0.471924H712.723C715.795 0.471924 718.611 1.23992 721.171 2.77592C723.731 4.31193 725.779 6.35993 727.315 8.91993C728.851 11.4799 729.619 14.3386 729.619 17.4959V70.1039ZM714.387 70.1039V17.4959C714.387 16.3013 713.833 15.7039 712.723 15.7039H688.147C687.72 15.7039 687.294 15.8746 686.867 16.2159C686.526 16.5573 686.355 16.9839 686.355 17.4959V70.1039C686.355 70.5306 686.526 70.9573 686.867 71.3839C687.294 71.7253 687.72 71.8959 688.147 71.8959H712.723C713.15 71.8959 713.534 71.7253 713.875 71.3839C714.217 70.9573 714.387 70.5306 714.387 70.1039Z" fill="black"/>
<path d="M660.58 70.1039C660.58 73.1759 659.812 75.9919 658.276 78.5519C656.74 81.1119 654.692 83.1599 652.132 84.6959C649.572 86.2319 646.756 86.9999 643.684 86.9999H609.508C607.887 86.9999 606.479 86.4453 605.284 85.3359C604.175 84.1413 603.62 82.7333 603.62 81.1119V6.35992C603.62 4.65326 604.175 3.24526 605.284 2.13593C606.479 1.02659 607.887 0.471924 609.508 0.471924H641.892C645.05 0.471924 647.866 1.23992 650.34 2.77592C652.9 4.31193 654.948 6.35993 656.484 8.91993C658.02 11.4799 658.788 14.3386 658.788 17.4959V32.7279C658.788 35.0319 658.362 37.1653 657.508 39.1279C657.082 40.0666 657.167 41.0053 657.764 41.9439C659.641 44.7599 660.58 47.9173 660.58 51.4159V70.1039ZM643.684 32.7279V17.4959C643.684 16.9839 643.471 16.5573 643.044 16.2159C642.703 15.8746 642.319 15.7039 641.892 15.7039H620.644C619.535 15.7039 618.98 16.2586 618.98 17.3679V32.7279C618.98 33.8373 619.535 34.3919 620.644 34.3919H641.892C642.319 34.3919 642.703 34.2213 643.044 33.8799C643.471 33.5386 643.684 33.1546 643.684 32.7279ZM645.348 70.1039V51.4159C645.348 50.2213 644.794 49.6239 643.684 49.6239H620.644C619.535 49.6239 618.98 50.1786 618.98 51.2879V70.2319C618.98 71.3413 619.535 71.8959 620.644 71.8959H643.684C644.111 71.8959 644.495 71.7253 644.836 71.3839C645.178 70.9573 645.348 70.5306 645.348 70.1039Z" fill="black"/>
<path d="M593.244 70.1039C593.244 73.1759 592.476 75.9919 590.94 78.5519C589.404 81.1119 587.356 83.1599 584.796 84.6959C582.236 86.2319 579.42 86.9999 576.348 86.9999H551.772C548.7 86.9999 545.842 86.2319 543.196 84.6959C540.636 83.1599 538.588 81.1119 537.052 78.5519C535.516 75.9919 534.748 73.1759 534.748 70.1039V17.4959C534.748 14.3386 535.516 11.4799 537.052 8.91993C538.588 6.35993 540.636 4.31193 543.196 2.77592C545.842 1.23992 548.7 0.471924 551.772 0.471924H576.348C579.42 0.471924 582.236 1.23992 584.796 2.77592C587.356 4.31193 589.404 6.35993 590.94 8.91993C592.476 11.4799 593.244 14.3386 593.244 17.4959V70.1039ZM578.012 70.1039V17.4959C578.012 16.3013 577.458 15.7039 576.348 15.7039H551.772C551.345 15.7039 550.919 15.8746 550.492 16.2159C550.151 16.5573 549.98 16.9839 549.98 17.4959V70.1039C549.98 70.5306 550.151 70.9573 550.492 71.3839C550.919 71.7253 551.345 71.8959 551.772 71.8959H576.348C576.775 71.8959 577.159 71.7253 577.5 71.3839C577.842 70.9573 578.012 70.5306 578.012 70.1039Z" fill="black"/>
<path d="M523.604 78.9359C524.458 80.8986 524.33 82.6906 523.22 84.3119C521.94 86.1039 520.319 86.9999 518.356 86.9999H514.516C513.407 86.9999 512.298 86.6586 511.188 85.9759C510.164 85.2933 509.439 84.4399 509.012 83.4159L496.98 54.6159C496.554 53.5919 495.786 53.0799 494.676 53.0799H482.772C481.663 53.0799 481.108 53.6346 481.108 54.7439V81.1119C481.108 82.7333 480.511 84.1413 479.316 85.3359C478.207 86.4453 476.842 86.9999 475.22 86.9999H471.636C470.015 86.9999 468.65 86.4453 467.54 85.3359C466.516 84.1413 466.004 82.7333 466.004 81.1119V6.35992C466.004 4.65326 466.516 3.24526 467.54 2.13593C468.65 1.02659 470.015 0.471924 471.636 0.471924H506.324C509.396 0.471924 512.212 1.23992 514.772 2.77592C517.332 4.31193 519.38 6.35993 520.916 8.91993C522.452 11.4799 523.22 14.3386 523.22 17.4959V36.1839C523.22 39.5119 522.324 42.5413 520.532 45.2719C518.826 47.9173 516.564 49.9653 513.748 51.4159C513.407 51.5013 513.151 51.7999 512.98 52.3119C512.81 52.7386 512.852 53.1653 513.108 53.5919L523.604 78.9359ZM507.988 36.1839V17.4959C507.988 16.3013 507.434 15.7039 506.324 15.7039H482.772C481.663 15.7039 481.108 16.2586 481.108 17.3679V36.1839C481.108 37.2933 481.663 37.8479 482.772 37.8479H506.324C507.434 37.8479 507.988 37.2933 507.988 36.1839Z" fill="black"/>
<path d="M425.705 70.1039C425.705 73.1759 424.937 75.9919 423.401 78.5519C421.865 81.1119 419.817 83.1599 417.257 84.6959C414.697 86.2319 411.881 86.9999 408.809 86.9999H374.633C373.012 86.9999 371.604 86.4453 370.409 85.3359C369.3 84.1413 368.745 82.7333 368.745 81.1119V6.35992C368.745 4.65326 369.3 3.24526 370.409 2.13593C371.604 1.02659 373.012 0.471924 374.633 0.471924H408.809C411.881 0.471924 414.697 1.23992 417.257 2.77592C419.817 4.31193 421.865 6.35993 423.401 8.91993C424.937 11.4799 425.705 14.3386 425.705 17.4959V70.1039ZM410.473 70.1039V17.4959C410.473 16.3013 409.919 15.7039 408.809 15.7039H385.769C384.66 15.7039 384.105 16.2586 384.105 17.3679V70.2319C384.105 71.3413 384.66 71.8959 385.769 71.8959H408.809C409.236 71.8959 409.62 71.7253 409.961 71.3839C410.303 70.9573 410.473 70.5306 410.473 70.1039Z" fill="black"/>
<path d="M358.547 81.1119C358.547 82.7333 357.95 84.1413 356.755 85.3359C355.646 86.4453 354.323 86.9999 352.787 86.9999H308.755C307.219 86.9999 305.854 86.4453 304.659 85.3359C303.55 84.1413 302.995 82.7333 302.995 81.1119V6.35992C302.995 4.65326 303.55 3.24526 304.659 2.13593C305.854 1.02659 307.219 0.471924 308.755 0.471924H352.787C354.323 0.471924 355.646 1.02659 356.755 2.13593C357.95 3.24526 358.547 4.65326 358.547 6.35992V9.81593C358.547 11.4373 357.95 12.8453 356.755 14.0399C355.646 15.1493 354.323 15.7039 352.787 15.7039H319.763C318.739 15.7039 318.227 16.2586 318.227 17.3679V34.3919C318.227 35.5866 318.739 36.1839 319.763 36.1839H348.179C349.886 36.1839 351.294 36.7386 352.403 37.8479C353.513 38.9573 354.067 40.3226 354.067 41.9439V45.5279C354.067 47.1493 353.513 48.5573 352.403 49.7519C351.294 50.8613 349.886 51.4159 348.179 51.4159H319.763C318.739 51.4159 318.227 51.9279 318.227 52.9519V70.2319C318.227 71.3413 318.739 71.8959 319.763 71.8959H352.787C354.323 71.8959 355.646 72.4506 356.755 73.5599C357.95 74.6693 358.547 76.0773 358.547 77.7839V81.1119Z" fill="black"/>
<path d="M292.605 81.1119C292.605 82.7333 292.008 84.1413 290.813 85.3359C289.704 86.4453 288.339 86.9999 286.717 86.9999H283.261C281.64 86.9999 280.232 86.4453 279.037 85.3359C277.928 84.1413 277.373 82.7333 277.373 81.1119V6.35992C277.373 4.65326 277.928 3.24526 279.037 2.13593C280.232 1.02659 281.64 0.471924 283.261 0.471924H286.717C288.339 0.471924 289.704 1.02659 290.813 2.13593C292.008 3.24526 292.605 4.65326 292.605 6.35992V81.1119Z" fill="black"/>
<path d="M267.047 81.1119C267.047 82.7333 266.45 84.1413 265.255 85.3359C264.146 86.4453 262.823 86.9999 261.287 86.9999H217.255C215.719 86.9999 214.354 86.4453 213.159 85.3359C212.05 84.1413 211.495 82.7333 211.495 81.1119V6.35992C211.495 4.65326 212.05 3.24526 213.159 2.13593C214.354 1.02659 215.719 0.471924 217.255 0.471924H220.839C222.461 0.471924 223.826 1.02659 224.935 2.13593C226.13 3.24526 226.727 4.65326 226.727 6.35992V70.2319C226.727 71.3413 227.239 71.8959 228.263 71.8959H261.287C262.823 71.8959 264.146 72.4506 265.255 73.5599C266.45 74.6693 267.047 76.0773 267.047 77.7839V81.1119Z" fill="black"/>
<path d="M201.208 36.1839C201.208 39.2559 200.44 42.0719 198.904 44.6319C197.454 47.1919 195.448 49.2399 192.888 50.7759C190.328 52.3119 187.47 53.0799 184.312 53.0799H160.76C159.736 53.0799 159.224 53.6346 159.224 54.7439V81.1119C159.224 82.7333 158.627 84.1413 157.432 85.3359C156.323 86.4453 154.958 86.9999 153.336 86.9999H149.88C148.259 86.9999 146.851 86.4453 145.656 85.3359C144.547 84.1413 143.992 82.7333 143.992 81.1119V6.35992C143.992 4.65326 144.547 3.24526 145.656 2.13593C146.851 1.02659 148.259 0.471924 149.88 0.471924H184.312C187.47 0.471924 190.328 1.23992 192.888 2.77592C195.448 4.31193 197.454 6.35993 198.904 8.91993C200.44 11.4799 201.208 14.3386 201.208 17.4959V36.1839ZM186.104 36.1839V17.4959C186.104 16.3013 185.507 15.7039 184.312 15.7039H160.76C159.736 15.7039 159.224 16.2586 159.224 17.3679V36.1839C159.224 37.2933 159.736 37.8479 160.76 37.8479H184.312C185.507 37.8479 186.104 37.2933 186.104 36.1839Z" fill="black"/>
<path d="M133.833 36.1839C133.833 39.2559 133.065 42.0719 131.529 44.6319C130.079 47.1919 128.073 49.2399 125.513 50.7759C122.953 52.3119 120.095 53.0799 116.937 53.0799H93.3852C92.3612 53.0799 91.8492 53.6346 91.8492 54.7439V81.1119C91.8492 82.7333 91.2519 84.1413 90.0572 85.3359C88.9479 86.4453 87.5825 86.9999 85.9612 86.9999H82.5052C80.8839 86.9999 79.4759 86.4453 78.2812 85.3359C77.1719 84.1413 76.6172 82.7333 76.6172 81.1119V6.35992C76.6172 4.65326 77.1719 3.24526 78.2812 2.13593C79.4759 1.02659 80.8839 0.471924 82.5052 0.471924H116.937C120.095 0.471924 122.953 1.23992 125.513 2.77592C128.073 4.31193 130.079 6.35993 131.529 8.91993C133.065 11.4799 133.833 14.3386 133.833 17.4959V36.1839ZM118.729 36.1839V17.4959C118.729 16.3013 118.132 15.7039 116.937 15.7039H93.3852C92.3612 15.7039 91.8492 16.2586 91.8492 17.3679V36.1839C91.8492 37.2933 92.3612 37.8479 93.3852 37.8479H116.937C118.132 37.8479 118.729 37.2933 118.729 36.1839Z" fill="black"/>
<path d="M66.2962 79.3199C66.8082 81.2826 66.5095 83.0746 65.4002 84.6959C64.2909 86.2319 62.7122 86.9999 60.6642 86.9999H56.9522C55.7575 86.9999 54.6055 86.6159 53.4962 85.8479C52.4722 85.0799 51.7469 84.1413 51.3202 83.0319L46.4562 68.3119C46.1149 67.2026 45.3895 66.6479 44.2802 66.6479H22.3922C21.2829 66.6479 20.5575 67.2026 20.2162 68.3119L15.3522 83.0319C14.9255 84.1413 14.2002 85.0799 13.1762 85.8479C12.1522 86.6159 11.0002 86.9999 9.7202 86.9999H6.0082C3.9602 86.9999 2.38153 86.2319 1.2722 84.6959C0.0775329 82.9893 -0.178467 81.1973 0.5042 79.3199L25.3362 4.43993C25.7629 3.24526 26.4455 2.30659 27.3842 1.62392C28.4082 0.855924 29.5175 0.471924 30.7122 0.471924H35.9602C37.1549 0.471924 38.2642 0.855924 39.2882 1.62392C40.3122 2.30659 40.9949 3.24526 41.3362 4.43993L66.2962 79.3199ZM40.4402 49.8799L34.0402 30.2959C33.6135 29.6986 33.1442 29.6986 32.6322 30.2959L26.2322 49.8799C26.0615 50.3066 26.1042 50.6906 26.3602 51.0319C26.6162 51.3733 26.9575 51.5439 27.3842 51.5439H39.2882C39.7149 51.5439 40.0562 51.3733 40.3122 51.0319C40.5682 50.6906 40.6109 50.3066 40.4402 49.8799Z" fill="black"/>
</svg>

