<svg width="1426" height="308" viewBox="0 0 1426 308" fill="none" xmlns="http://www.w3.org/2000/svg">
<path d="M63.4743 303.6L54.1323 221.32H25.4665L16.1245 303.6H0L33.2728 4.40002H46.326L79.5988 303.6H63.4743ZM30.8413 172.92H48.7574L39.7994 94.16L30.8413 172.92Z" fill="black"/>
<path d="M90.2474 303.6V4.40002H119.425C138.365 4.40002 147.323 37.4 147.323 91.96C147.323 146.52 138.237 179.96 119.553 179.96H105.476V278.08C105.476 288.64 105.604 297.44 106.244 303.6H90.2474ZM119.425 54.12H105.476V130.24H119.041C127.743 130.24 131.455 116.16 131.455 91.96C131.455 67.76 126.975 54.12 119.425 54.12Z" fill="black"/>
<path d="M161.482 303.6V4.40002H190.66C209.6 4.40002 218.558 37.4 218.558 91.96C218.558 146.52 209.472 179.96 190.788 179.96H176.711V278.08C176.711 288.64 176.839 297.44 177.479 303.6H161.482ZM190.66 54.12H176.711V130.24H190.276C198.978 130.24 202.689 116.16 202.689 91.96C202.689 67.76 198.21 54.12 190.66 54.12Z" fill="black"/>
<path d="M232.717 303.6V4.40002H247.945V253.88H282.498V303.6H232.717Z" fill="black"/>
<path d="M299.827 303.6V4.40002H315.056V303.6H299.827Z" fill="black"/>
<path d="M337.069 303.6V4.40002H390.305V54.12H352.298V115.28H388.258V165H352.298V253.88H390.305V303.6H337.069Z" fill="black"/>
<path d="M408.429 303.6V4.40002H434.407C460.385 4.40002 477.789 61.16 477.789 154C477.789 246.4 460.385 303.6 434.407 303.6H408.429ZM433.511 253.88C451.683 253.88 461.921 220.44 461.921 154C461.921 87.56 451.683 54.12 433.511 54.12H423.657V253.88H433.511Z" fill="black"/>
<path d="M551.273 303.6V4.40002H587.361C606.301 4.40002 615.259 36.52 615.259 89.76C615.259 123.64 608.732 145.64 600.158 159.28C605.533 168.08 607.836 184.8 608.732 202.4L610.652 239.8C611.931 264.88 615.899 289.52 622.041 303.6H601.95C597.343 296.56 595.679 277.64 594.527 249.92L593.119 216.04C592.096 192.28 589.28 175.12 581.602 175.12H566.501V303.6H551.273ZM587.361 54.12H566.501V125.4H586.977C595.679 125.4 599.39 112.64 599.39 89.76C599.39 66.88 594.911 54.12 587.361 54.12Z" fill="black"/>
<path d="M665.171 308C643.672 308 626.523 248.6 626.523 154C626.523 59.4 643.544 0 665.171 0C686.926 0 704.074 59.4 704.074 154C704.074 248.6 686.798 308 665.171 308ZM665.171 255.64C678.608 255.64 688.078 217.8 688.078 154C688.078 90.2 678.608 52.36 665.171 52.36C651.734 52.36 642.392 90.2 642.392 154C642.392 217.8 651.734 255.64 665.171 255.64Z" fill="black"/>
<path d="M721.361 303.6V4.40002H756.809C777.541 4.40002 785.219 40.04 785.219 82.72C785.219 113.52 780.996 133.76 775.493 149.6C784.707 166.32 787.138 193.6 787.138 216.04C787.138 267.08 777.541 303.6 757.449 303.6H721.361ZM756.937 54.12H736.589V126.72H756.553C765.895 126.72 769.862 115.72 769.862 89.76C769.862 64.68 765.127 54.12 756.937 54.12ZM756.553 176.44H736.589V253.88H759.496C767.303 253.88 771.91 240.68 771.91 216.04C771.91 189.64 766.151 176.44 756.553 176.44Z" fill="black"/>
<path d="M837.883 308C816.384 308 799.236 248.6 799.236 154C799.236 59.4 816.256 0 837.883 0C859.639 0 876.787 59.4 876.787 154C876.787 248.6 859.511 308 837.883 308ZM837.883 255.64C851.321 255.64 860.79 217.8 860.79 154C860.79 90.2 851.321 52.36 837.883 52.36C824.446 52.36 815.104 90.2 815.104 154C815.104 217.8 824.446 255.64 837.883 255.64Z" fill="black"/>
<path d="M904.946 303.6V57.2H882.167V4.40002H943.082V57.2H920.303V303.6H904.946Z" fill="black"/>
<path d="M958.309 303.6V4.40002H973.538V303.6H958.309Z" fill="black"/>
<path d="M1050.96 179.52H1066.96C1066.06 257.4 1051.35 308 1029.46 308C1008.99 308 990.944 256.08 990.944 154C990.944 51.92 1007.96 0 1029.46 0C1050.96 0 1065.04 46.2 1066.96 131.56H1049.81C1048.4 75.68 1040.09 52.36 1028.82 52.36C1015.51 52.36 1006.81 85.36 1006.81 154C1006.81 222.64 1015.64 255.64 1028.82 255.64C1040.21 255.64 1045.84 236.28 1050.96 179.52Z" fill="black"/>
<path d="M1141.14 99H1125.78C1125.01 73.04 1123.22 39.6 1109.27 39.6C1099.03 39.6 1094.17 57.2 1094.17 80.96C1094.17 153.12 1142.67 80.52 1142.67 211.2C1142.67 271.92 1128.98 308 1109.27 308C1084.7 308 1074.34 255.64 1076.38 205.48H1092.51C1093.15 239.36 1094.43 268.4 1109.78 268.4C1122.33 268.4 1126.68 247.28 1126.68 224.4C1126.68 148.28 1078.05 218.68 1078.05 88C1078.05 37.84 1090.2 0 1108.89 0C1132.56 0 1142.42 42.24 1141.14 99Z" fill="black"/>
<path d="M1214.25 303.6V4.40002H1229.48V253.88H1264.04V303.6H1214.25Z" fill="black"/>
<path d="M1333.45 303.6L1324.11 221.32H1295.44L1286.1 303.6H1269.97L1303.25 4.40002H1316.3L1349.57 303.6H1333.45ZM1300.82 172.92H1318.73L1309.77 94.16L1300.82 172.92Z" fill="black"/>
<path d="M1360.22 303.6V4.40002H1395.67C1416.4 4.40002 1424.08 40.04 1424.08 82.72C1424.08 113.52 1419.86 133.76 1414.35 149.6C1423.57 166.32 1426 193.6 1426 216.04C1426 267.08 1416.4 303.6 1396.31 303.6H1360.22ZM1395.8 54.12H1375.45V126.72H1395.41C1404.76 126.72 1408.72 115.72 1408.72 89.76C1408.72 64.68 1403.99 54.12 1395.8 54.12ZM1395.41 176.44H1375.45V253.88H1398.36C1406.16 253.88 1410.77 240.68 1410.77 216.04C1410.77 189.64 1405.01 176.44 1395.41 176.44Z" fill="black"/>
</svg>

