<svg width="1200" height="87" viewBox="0 0 1200 87" fill="none" xmlns="http://www.w3.org/2000/svg">
<path d="M67.296 79.32C67.808 81.2827 67.5093 83.0747 66.4 84.696C65.2907 86.232 63.712 87 61.664 87H57.952C56.7573 87 55.6053 86.616 54.496 85.848C53.472 85.08 52.7467 84.1413 52.32 83.032L47.456 68.312C47.1147 67.2027 46.3893 66.648 45.28 66.648H23.392C22.2827 66.648 21.5573 67.2027 21.216 68.312L16.352 83.032C15.9253 84.1413 15.2 85.08 14.176 85.848C13.152 86.616 12 87 10.72 87H7.008C4.96 87 3.38133 86.232 2.272 84.696C1.07733 82.9893 0.821333 81.1973 1.504 79.32L26.336 4.43999C26.7627 3.24533 27.4453 2.30666 28.384 1.62399C29.408 0.855993 30.5173 0.471992 31.712 0.471992H36.96C38.1547 0.471992 39.264 0.855993 40.288 1.62399C41.312 2.30666 41.9947 3.24533 42.336 4.43999L67.296 79.32ZM41.44 49.88L35.04 30.296C34.6133 29.6987 34.144 29.6987 33.632 30.296L27.232 49.88C27.0613 50.3067 27.104 50.6907 27.36 51.032C27.616 51.3733 27.9573 51.544 28.384 51.544H40.288C40.7147 51.544 41.056 51.3733 41.312 51.032C41.568 50.6907 41.6107 50.3067 41.44 49.88ZM134.833 36.184C134.833 39.256 134.065 42.072 132.529 44.632C131.078 47.192 129.073 49.24 126.513 50.776C123.953 52.312 121.094 53.08 117.937 53.08H94.385C93.361 53.08 92.849 53.6347 92.849 54.744V81.112C92.849 82.7333 92.2517 84.1413 91.057 85.336C89.9477 86.4453 88.5823 87 86.961 87H83.505C81.8837 87 80.4757 86.4453 79.281 85.336C78.1717 84.1413 77.617 82.7333 77.617 81.112V6.35999C77.617 4.65333 78.1717 3.24533 79.281 2.13599C80.4757 1.02666 81.8837 0.471992 83.505 0.471992H117.937C121.094 0.471992 123.953 1.23999 126.513 2.77599C129.073 4.31199 131.078 6.36 132.529 8.92C134.065 11.48 134.833 14.3387 134.833 17.496V36.184ZM119.729 36.184V17.496C119.729 16.3013 119.132 15.704 117.937 15.704H94.385C93.361 15.704 92.849 16.2587 92.849 17.368V36.184C92.849 37.2933 93.361 37.848 94.385 37.848H117.937C119.132 37.848 119.729 37.2933 119.729 36.184ZM202.208 36.184C202.208 39.256 201.44 42.072 199.904 44.632C198.453 47.192 196.448 49.24 193.888 50.776C191.328 52.312 188.469 53.08 185.312 53.08H161.76C160.736 53.08 160.224 53.6347 160.224 54.744V81.112C160.224 82.7333 159.627 84.1413 158.432 85.336C157.323 86.4453 155.957 87 154.336 87H150.88C149.259 87 147.851 86.4453 146.656 85.336C145.547 84.1413 144.992 82.7333 144.992 81.112V6.35999C144.992 4.65333 145.547 3.24533 146.656 2.13599C147.851 1.02666 149.259 0.471992 150.88 0.471992H185.312C188.469 0.471992 191.328 1.23999 193.888 2.77599C196.448 4.31199 198.453 6.36 199.904 8.92C201.44 11.48 202.208 14.3387 202.208 17.496V36.184ZM187.104 36.184V17.496C187.104 16.3013 186.507 15.704 185.312 15.704H161.76C160.736 15.704 160.224 16.2587 160.224 17.368V36.184C160.224 37.2933 160.736 37.848 161.76 37.848H185.312C186.507 37.848 187.104 37.2933 187.104 36.184ZM268.047 81.112C268.047 82.7333 267.45 84.1413 266.255 85.336C265.146 86.4453 263.823 87 262.287 87H218.255C216.719 87 215.354 86.4453 214.159 85.336C213.05 84.1413 212.495 82.7333 212.495 81.112V6.35999C212.495 4.65333 213.05 3.24533 214.159 2.13599C215.354 1.02666 216.719 0.471992 218.255 0.471992H221.839C223.46 0.471992 224.826 1.02666 225.935 2.13599C227.13 3.24533 227.727 4.65333 227.727 6.35999V70.232C227.727 71.3413 228.239 71.896 229.263 71.896H262.287C263.823 71.896 265.146 72.4507 266.255 73.56C267.45 74.6693 268.047 76.0773 268.047 77.784V81.112ZM293.605 81.112C293.605 82.7333 293.008 84.1413 291.813 85.336C290.704 86.4453 289.338 87 287.717 87H284.261C282.64 87 281.232 86.4453 280.037 85.336C278.928 84.1413 278.373 82.7333 278.373 81.112V6.35999C278.373 4.65333 278.928 3.24533 280.037 2.13599C281.232 1.02666 282.64 0.471992 284.261 0.471992H287.717C289.338 0.471992 290.704 1.02666 291.813 2.13599C293.008 3.24533 293.605 4.65333 293.605 6.35999V81.112ZM359.547 81.112C359.547 82.7333 358.95 84.1413 357.755 85.336C356.646 86.4453 355.323 87 353.787 87H309.755C308.219 87 306.854 86.4453 305.659 85.336C304.55 84.1413 303.995 82.7333 303.995 81.112V6.35999C303.995 4.65333 304.55 3.24533 305.659 2.13599C306.854 1.02666 308.219 0.471992 309.755 0.471992H353.787C355.323 0.471992 356.646 1.02666 357.755 2.13599C358.95 3.24533 359.547 4.65333 359.547 6.35999V9.81599C359.547 11.4373 358.95 12.8453 357.755 14.04C356.646 15.1493 355.323 15.704 353.787 15.704H320.763C319.739 15.704 319.227 16.2587 319.227 17.368V34.392C319.227 35.5867 319.739 36.184 320.763 36.184H349.179C350.886 36.184 352.294 36.7387 353.403 37.848C354.512 38.9573 355.067 40.3227 355.067 41.944V45.528C355.067 47.1493 354.512 48.5573 353.403 49.752C352.294 50.8613 350.886 51.416 349.179 51.416H320.763C319.739 51.416 319.227 51.928 319.227 52.952V70.232C319.227 71.3413 319.739 71.896 320.763 71.896H353.787C355.323 71.896 356.646 72.4507 357.755 73.56C358.95 74.6693 359.547 76.0773 359.547 77.784V81.112ZM426.705 70.104C426.705 73.176 425.937 75.992 424.401 78.552C422.865 81.112 420.817 83.16 418.257 84.696C415.697 86.232 412.881 87 409.809 87H375.633C374.012 87 372.604 86.4453 371.409 85.336C370.3 84.1413 369.745 82.7333 369.745 81.112V6.35999C369.745 4.65333 370.3 3.24533 371.409 2.13599C372.604 1.02666 374.012 0.471992 375.633 0.471992H409.809C412.881 0.471992 415.697 1.23999 418.257 2.77599C420.817 4.31199 422.865 6.36 424.401 8.92C425.937 11.48 426.705 14.3387 426.705 17.496V70.104ZM411.473 70.104V17.496C411.473 16.3013 410.918 15.704 409.809 15.704H386.769C385.66 15.704 385.105 16.2587 385.105 17.368V70.232C385.105 71.3413 385.66 71.896 386.769 71.896H409.809C410.236 71.896 410.62 71.7253 410.961 71.384C411.302 70.9573 411.473 70.5307 411.473 70.104ZM524.604 78.936C525.457 80.8987 525.329 82.6907 524.22 84.312C522.94 86.104 521.319 87 519.356 87H515.516C514.407 87 513.297 86.6587 512.188 85.976C511.164 85.2933 510.439 84.44 510.012 83.416L497.98 54.616C497.553 53.592 496.785 53.08 495.676 53.08H483.772C482.663 53.08 482.108 53.6347 482.108 54.744V81.112C482.108 82.7333 481.511 84.1413 480.316 85.336C479.207 86.4453 477.841 87 476.22 87H472.636C471.015 87 469.649 86.4453 468.54 85.336C467.516 84.1413 467.004 82.7333 467.004 81.112V6.35999C467.004 4.65333 467.516 3.24533 468.54 2.13599C469.649 1.02666 471.015 0.471992 472.636 0.471992H507.324C510.396 0.471992 513.212 1.23999 515.772 2.77599C518.332 4.31199 520.38 6.36 521.916 8.92C523.452 11.48 524.22 14.3387 524.22 17.496V36.184C524.22 39.512 523.324 42.5413 521.532 45.272C519.825 47.9173 517.564 49.9653 514.748 51.416C514.407 51.5013 514.151 51.8 513.98 52.312C513.809 52.7387 513.852 53.1653 514.108 53.592L524.604 78.936ZM508.988 36.184V17.496C508.988 16.3013 508.433 15.704 507.324 15.704H483.772C482.663 15.704 482.108 16.2587 482.108 17.368V36.184C482.108 37.2933 482.663 37.848 483.772 37.848H507.324C508.433 37.848 508.988 37.2933 508.988 36.184ZM594.244 70.104C594.244 73.176 593.476 75.992 591.94 78.552C590.404 81.112 588.356 83.16 585.796 84.696C583.236 86.232 580.42 87 577.348 87H552.772C549.7 87 546.841 86.232 544.196 84.696C541.636 83.16 539.588 81.112 538.052 78.552C536.516 75.992 535.748 73.176 535.748 70.104V17.496C535.748 14.3387 536.516 11.48 538.052 8.92C539.588 6.36 541.636 4.31199 544.196 2.77599C546.841 1.23999 549.7 0.471992 552.772 0.471992H577.348C580.42 0.471992 583.236 1.23999 585.796 2.77599C588.356 4.31199 590.404 6.36 591.94 8.92C593.476 11.48 594.244 14.3387 594.244 17.496V70.104ZM579.012 70.104V17.496C579.012 16.3013 578.457 15.704 577.348 15.704H552.772C552.345 15.704 551.919 15.8747 551.492 16.216C551.151 16.5573 550.98 16.984 550.98 17.496V70.104C550.98 70.5307 551.151 70.9573 551.492 71.384C551.919 71.7253 552.345 71.896 552.772 71.896H577.348C577.775 71.896 578.159 71.7253 578.5 71.384C578.841 70.9573 579.012 70.5307 579.012 70.104ZM661.58 70.104C661.58 73.176 660.812 75.992 659.276 78.552C657.74 81.112 655.692 83.16 653.132 84.696C650.572 86.232 647.756 87 644.684 87H610.508C608.887 87 607.479 86.4453 606.284 85.336C605.175 84.1413 604.62 82.7333 604.62 81.112V6.35999C604.62 4.65333 605.175 3.24533 606.284 2.13599C607.479 1.02666 608.887 0.471992 610.508 0.471992H642.892C646.049 0.471992 648.865 1.23999 651.34 2.77599C653.9 4.31199 655.948 6.36 657.484 8.92C659.02 11.48 659.788 14.3387 659.788 17.496V32.728C659.788 35.032 659.361 37.1653 658.508 39.128C658.081 40.0667 658.167 41.0053 658.764 41.944C660.641 44.76 661.58 47.9173 661.58 51.416V70.104ZM644.684 32.728V17.496C644.684 16.984 644.471 16.5573 644.044 16.216C643.703 15.8747 643.319 15.704 642.892 15.704H621.644C620.535 15.704 619.98 16.2587 619.98 17.368V32.728C619.98 33.8373 620.535 34.392 621.644 34.392H642.892C643.319 34.392 643.703 34.2213 644.044 33.88C644.471 33.5387 644.684 33.1547 644.684 32.728ZM646.348 70.104V51.416C646.348 50.2213 645.793 49.624 644.684 49.624H621.644C620.535 49.624 619.98 50.1787 619.98 51.288V70.232C619.98 71.3413 620.535 71.896 621.644 71.896H644.684C645.111 71.896 645.495 71.7253 645.836 71.384C646.177 70.9573 646.348 70.5307 646.348 70.104ZM730.619 70.104C730.619 73.176 729.851 75.992 728.315 78.552C726.779 81.112 724.731 83.16 722.171 84.696C719.611 86.232 716.795 87 713.723 87H689.147C686.075 87 683.216 86.232 680.571 84.696C678.011 83.16 675.963 81.112 674.427 78.552C672.891 75.992 672.123 73.176 672.123 70.104V17.496C672.123 14.3387 672.891 11.48 674.427 8.92C675.963 6.36 678.011 4.31199 680.571 2.77599C683.216 1.23999 686.075 0.471992 689.147 0.471992H713.723C716.795 0.471992 719.611 1.23999 722.171 2.77599C724.731 4.31199 726.779 6.36 728.315 8.92C729.851 11.48 730.619 14.3387 730.619 17.496V70.104ZM715.387 70.104V17.496C715.387 16.3013 714.832 15.704 713.723 15.704H689.147C688.72 15.704 688.294 15.8747 687.867 16.216C687.526 16.5573 687.355 16.984 687.355 17.496V70.104C687.355 70.5307 687.526 70.9573 687.867 71.384C688.294 71.7253 688.72 71.896 689.147 71.896H713.723C714.15 71.896 714.534 71.7253 714.875 71.384C715.216 70.9573 715.387 70.5307 715.387 70.104ZM798.083 9.81599C798.083 11.4373 797.528 12.8453 796.419 14.04C795.31 15.1493 793.902 15.704 792.195 15.704H778.755C777.646 15.704 777.091 16.2587 777.091 17.368V81.112C777.091 82.7333 776.494 84.1413 775.299 85.336C774.19 86.4453 772.824 87 771.203 87H767.875C766.254 87 764.846 86.4453 763.651 85.336C762.542 84.1413 761.987 82.7333 761.987 81.112V17.368C761.987 16.2587 761.432 15.704 760.323 15.704H746.755C745.134 15.704 743.726 15.1493 742.531 14.04C741.422 12.8453 740.867 11.4373 740.867 9.81599V6.35999C740.867 4.65333 741.422 3.24533 742.531 2.13599C743.726 1.02666 745.134 0.471992 746.755 0.471992H792.195C793.902 0.471992 795.31 1.02666 796.419 2.13599C797.528 3.24533 798.083 4.65333 798.083 6.35999V9.81599ZM823.73 81.112C823.73 82.7333 823.133 84.1413 821.938 85.336C820.829 86.4453 819.463 87 817.842 87H814.386C812.765 87 811.357 86.4453 810.162 85.336C809.053 84.1413 808.498 82.7333 808.498 81.112V6.35999C808.498 4.65333 809.053 3.24533 810.162 2.13599C811.357 1.02666 812.765 0.471992 814.386 0.471992H817.842C819.463 0.471992 820.829 1.02666 821.938 2.13599C823.133 3.24533 823.73 4.65333 823.73 6.35999V81.112ZM891.08 70.104C891.08 73.176 890.312 75.992 888.776 78.552C887.24 81.112 885.192 83.16 882.632 84.696C880.072 86.232 877.256 87 874.184 87H851.144C848.072 87 845.213 86.232 842.568 84.696C840.008 83.16 837.96 81.112 836.424 78.552C834.888 75.992 834.12 73.176 834.12 70.104V17.496C834.12 14.3387 834.888 11.48 836.424 8.92C837.96 6.36 840.008 4.31199 842.568 2.77599C845.213 1.23999 848.072 0.471992 851.144 0.471992H874.184C877.256 0.471992 880.072 1.23999 882.632 2.77599C885.192 4.31199 887.24 6.36 888.776 8.92C890.312 11.48 891.08 14.3387 891.08 17.496V20.952C891.08 22.5733 890.525 23.9387 889.416 25.048C888.307 26.1573 886.899 26.712 885.192 26.712H881.736C880.115 26.712 878.707 26.1573 877.512 25.048C876.403 23.9387 875.848 22.5733 875.848 20.952V17.496C875.848 16.3013 875.293 15.704 874.184 15.704H851.144C850.035 15.704 849.48 16.3013 849.48 17.496V70.104C849.48 70.5307 849.651 70.9573 849.992 71.384C850.333 71.7253 850.717 71.896 851.144 71.896H874.184C874.611 71.896 874.995 71.7253 875.336 71.384C875.677 70.9573 875.848 70.5307 875.848 70.104V66.264C875.848 64.6427 876.403 63.2773 877.512 62.168C878.707 60.9733 880.115 60.376 881.736 60.376H885.192C886.899 60.376 888.307 60.9733 889.416 62.168C890.525 63.2773 891.08 64.6427 891.08 66.264V70.104ZM960.119 70.104C960.119 73.176 959.351 75.992 957.815 78.552C956.279 81.112 954.231 83.16 951.671 84.696C949.111 86.232 946.295 87 943.223 87H918.647C915.575 87 912.716 86.232 910.071 84.696C907.511 83.16 905.463 81.112 903.927 78.552C902.391 75.992 901.623 73.176 901.623 70.104V66.264C901.623 64.6427 902.178 63.2773 903.287 62.168C904.482 60.9733 905.89 60.376 907.511 60.376H911.095C912.631 60.376 913.954 60.9733 915.063 62.168C916.258 63.2773 916.855 64.6427 916.855 66.264V70.104C916.855 70.5307 917.026 70.9573 917.367 71.384C917.794 71.7253 918.22 71.896 918.647 71.896H943.223C943.65 71.896 944.034 71.7253 944.375 71.384C944.716 70.9573 944.887 70.5307 944.887 70.104V58.456C944.887 57.5173 944.46 56.92 943.607 56.664L912.887 45.144C909.474 43.9493 906.743 41.8587 904.695 38.872C902.647 35.8853 901.623 32.6 901.623 29.016V17.496C901.623 14.3387 902.391 11.48 903.927 8.92C905.463 6.36 907.511 4.31199 910.071 2.77599C912.716 1.23999 915.575 0.471992 918.647 0.471992H943.223C946.295 0.471992 949.111 1.23999 951.671 2.77599C954.231 4.31199 956.279 6.36 957.815 8.92C959.351 11.48 960.119 14.3387 960.119 17.496V20.952C960.119 22.5733 959.522 23.9387 958.327 25.048C957.218 26.1573 955.852 26.712 954.231 26.712H950.775C949.154 26.712 947.746 26.1573 946.551 25.048C945.442 23.9387 944.887 22.5733 944.887 20.952V17.496C944.887 16.3013 944.332 15.704 943.223 15.704H918.647C918.22 15.704 917.794 15.8747 917.367 16.216C917.026 16.5573 916.855 16.984 916.855 17.496V29.016C916.855 30.04 917.282 30.68 918.135 30.936L948.983 42.456C952.311 43.6507 954.999 45.7413 957.047 48.728C959.095 51.7147 960.119 54.9573 960.119 58.456V70.104ZM1055.55 81.112C1055.55 82.7333 1054.95 84.1413 1053.76 85.336C1052.65 86.4453 1051.32 87 1049.79 87H1005.76C1004.22 87 1002.85 86.4453 1001.66 85.336C1000.55 84.1413 999.995 82.7333 999.995 81.112V6.35999C999.995 4.65333 1000.55 3.24533 1001.66 2.13599C1002.85 1.02666 1004.22 0.471992 1005.76 0.471992H1009.34C1010.96 0.471992 1012.33 1.02666 1013.44 2.13599C1014.63 3.24533 1015.23 4.65333 1015.23 6.35999V70.232C1015.23 71.3413 1015.74 71.896 1016.76 71.896H1049.79C1051.32 71.896 1052.65 72.4507 1053.76 73.56C1054.95 74.6693 1055.55 76.0773 1055.55 77.784V81.112ZM1131.92 79.32C1132.43 81.2827 1132.13 83.0747 1131.03 84.696C1129.92 86.232 1128.34 87 1126.29 87H1122.58C1121.38 87 1120.23 86.616 1119.12 85.848C1118.1 85.08 1117.37 84.1413 1116.95 83.032L1112.08 68.312C1111.74 67.2027 1111.01 66.648 1109.91 66.648H1088.02C1086.91 66.648 1086.18 67.2027 1085.84 68.312L1080.98 83.032C1080.55 84.1413 1079.83 85.08 1078.8 85.848C1077.78 86.616 1076.63 87 1075.35 87H1071.63C1069.59 87 1068.01 86.232 1066.9 84.696C1065.7 82.9893 1065.45 81.1973 1066.13 79.32L1090.96 4.43999C1091.39 3.24533 1092.07 2.30666 1093.01 1.62399C1094.03 0.855993 1095.14 0.471992 1096.34 0.471992H1101.59C1102.78 0.471992 1103.89 0.855993 1104.91 1.62399C1105.94 2.30666 1106.62 3.24533 1106.96 4.43999L1131.92 79.32ZM1106.07 49.88L1099.67 30.296C1099.24 29.6987 1098.77 29.6987 1098.26 30.296L1091.86 49.88C1091.69 50.3067 1091.73 50.6907 1091.99 51.032C1092.24 51.3733 1092.58 51.544 1093.01 51.544H1104.91C1105.34 51.544 1105.68 51.3733 1105.94 51.032C1106.19 50.6907 1106.24 50.3067 1106.07 49.88ZM1199.33 70.104C1199.33 73.176 1198.56 75.992 1197.03 78.552C1195.49 81.112 1193.44 83.16 1190.88 84.696C1188.32 86.232 1185.51 87 1182.43 87H1148.26C1146.64 87 1145.23 86.4453 1144.03 85.336C1142.92 84.1413 1142.37 82.7333 1142.37 81.112V6.35999C1142.37 4.65333 1142.92 3.24533 1144.03 2.13599C1145.23 1.02666 1146.64 0.471992 1148.26 0.471992H1180.64C1183.8 0.471992 1186.62 1.23999 1189.09 2.77599C1191.65 4.31199 1193.7 6.36 1195.23 8.92C1196.77 11.48 1197.54 14.3387 1197.54 17.496V32.728C1197.54 35.032 1197.11 37.1653 1196.26 39.128C1195.83 40.0667 1195.92 41.0053 1196.51 41.944C1198.39 44.76 1199.33 47.9173 1199.33 51.416V70.104ZM1182.43 32.728V17.496C1182.43 16.984 1182.22 16.5573 1181.79 16.216C1181.45 15.8747 1181.07 15.704 1180.64 15.704H1159.39C1158.28 15.704 1157.73 16.2587 1157.73 17.368V32.728C1157.73 33.8373 1158.28 34.392 1159.39 34.392H1180.64C1181.07 34.392 1181.45 34.2213 1181.79 33.88C1182.22 33.5387 1182.43 33.1547 1182.43 32.728ZM1184.1 70.104V51.416C1184.1 50.2213 1183.54 49.624 1182.43 49.624H1159.39C1158.28 49.624 1157.73 50.1787 1157.73 51.288V70.232C1157.73 71.3413 1158.28 71.896 1159.39 71.896H1182.43C1182.86 71.896 1183.24 71.7253 1183.59 71.384C1183.93 70.9573 1184.1 70.5307 1184.1 70.104Z" fill="black"/>
</svg>

