<svg width="1159" height="649" viewBox="0 0 1159 649" fill="none" xmlns="http://www.w3.org/2000/svg">
<path fill-rule="evenodd" clip-rule="evenodd" d="M741.966 638.582V400.614H667.672V343.22H880.872V400.614H806.554V638.582H741.966ZM988.076 522.545C988.076 563.478 1006.78 585.42 1042.19 585.42C1077.18 585.42 1095.91 563.478 1095.91 522.545V343.22H1158.17V522.98C1158.17 594.271 1115.85 642.798 1042.19 642.798C968.134 642.798 925.809 594.271 925.809 522.98V343.22H988.076V522.545ZM664.416 207.377V201.686H730.713V205.764C730.713 232.519 746.778 246.537 773.12 246.537C791.231 246.537 803.983 240.338 810.19 230.06C812.648 225.562 813.841 220.548 813.841 214.857C813.841 209.924 813.075 205.764 811.036 201.686C806.014 193.439 795.399 186.813 776.859 183.17L740.99 176.116C710.997 169.998 688.726 156.826 677.16 135.844C670.195 123.438 666.447 109.5 666.447 92.6045C666.447 74.9348 670.195 59.7238 678.014 46.5602C694.925 17.3311 729.093 0 774.74 0C841.883 0 883.451 34.1624 883.451 95.0631V100.843H816.727V96.6833C816.727 70.3401 801.089 56.4107 774.401 56.4107C756.217 56.4107 743.465 62.5371 737.678 72.8954C734.784 77.3934 733.599 82.3267 733.599 88.0984C733.599 93.0237 734.445 97.1025 736.501 100.843C741.418 109.5 752.13 115.207 770.661 118.948L806.014 125.904C836.531 132.111 858.722 146.121 870.7 167.112C877.672 179.429 880.985 193.439 880.985 210.69C880.985 228.021 877.245 243.659 869.845 256.823C852.596 286.044 818.419 302.867 772.7 302.867C705.637 302.867 664.416 268.285 664.416 207.377ZM988.132 123.285H1130.48V178.148H988.132V241.853H1158.14V298.401H925.865V3.03899H1158.14V57.8939H988.132V123.285ZM566.868 41.9977C568.561 38.6201 569.955 32.7598 569.955 28.9711V18.5161C569.955 14.7274 567.94 13.9052 566.409 13.9052C564.853 13.9052 562.943 14.3888 561.234 17.7745L446.953 252.188L496.065 31.2524L498.999 18.3387C499.829 14.6468 497.427 11.632 493.639 11.632H491.068C487.279 11.632 483.491 14.6468 482.653 18.3387L479.162 39.6358L432.315 251.76V18.5161C432.311 16.693 431.585 14.9457 430.297 13.6558C429.009 12.366 427.262 11.6384 425.439 11.632H423.368C421.545 11.6384 419.799 12.366 418.51 13.6558C417.222 14.9457 416.497 16.693 416.492 18.5161V42.9086L416.009 285.633C411.189 375.238 353.927 427.772 284.978 428.457C216.045 427.772 158.791 375.496 153.971 285.891L153.479 42.9086V18.5161C153.475 16.6902 152.747 14.9405 151.456 13.6502C150.164 12.3598 148.413 11.6341 146.588 11.632H144.532C142.707 11.6362 140.958 12.3626 139.667 13.6525C138.375 14.9424 137.647 16.6909 137.641 18.5161V251.76L90.8092 33.7271L87.311 18.3387C86.4727 14.6468 82.6842 11.632 78.8958 11.632H76.3326C72.5442 11.632 70.126 14.6468 70.9724 18.3387L73.8983 31.2524L123.615 252.712L8.73754 17.7745C7.02873 14.3888 5.11033 13.9052 3.56273 13.9052C2.01512 13.9052 0 14.7274 0 18.5161V28.9711C0 32.7598 1.40252 38.6201 3.10328 41.9977L136.818 314.136L5.69875 165.863C3.14358 163.074 0 164.847 0 168.628V176.31C0 180.098 2.09572 185.459 4.67507 188.248L143.912 345.356L150.36 367.847L5.88414 268.672C2.65995 266.722 0 268.221 0 272.002V276.854C0 280.643 2.65995 285.334 5.8922 287.293L155.253 389.426L158.332 402.96L6.666 351.894C2.99849 350.951 0 353.264 0 357.053V359.737C0 363.526 2.99849 367.395 6.666 368.346L162.297 420.436L164.53 430.23H10.3335C6.5451 430.23 3.8529 432.649 4.36877 435.583C4.86852 438.525 9.48717 446.159 13.2756 446.159H168.141L172.413 465.005L30.8313 498.33C27.1476 499.208 25.2051 502.126 26.5109 504.843C27.8167 507.559 34.4988 513.831 38.1824 512.968L175.952 480.539L183.392 513.275L85.6989 571.983C83.4016 573.297 83.3694 575.957 85.6263 577.924L90.245 581.946C92.5019 583.913 96.1936 584.445 98.4989 583.131L187.108 529.654L195.934 568.525L152.198 615.601C150.142 617.793 150.618 620.639 153.246 621.961L158.646 624.645C161.282 625.967 165.07 625.25 167.134 623.057L200.222 587.387L210.539 633.278C211.216 636.97 214.239 640.638 217.27 641.444L223.476 643.097C226.515 643.903 228.417 641.573 227.724 637.857L213.336 573.16L250.414 532.879L277.256 586.138L255.251 629.804L248.722 641.767C247.15 644.701 248.222 647.458 251.116 647.917L257.032 648.86C259.934 649.312 263.537 647.312 265.125 644.37L270.799 633.996L270.961 634.036L273.064 629.86L274.144 627.878H274.064L275.031 625.967L283.075 609.99L284.978 606.202L294.94 625.967L295.908 627.878H295.811L296.899 629.86L299.003 634.036L299.164 633.996L304.847 644.37C306.419 647.312 310.038 649.312 312.931 648.86L318.848 647.917C321.742 647.458 322.814 644.701 321.242 641.767L314.713 629.804L292.708 586.138L319.549 532.879L356.627 573.16L344.964 624.54C345.004 624.54 345.028 624.524 345.069 624.516L342.247 637.865C341.554 641.573 343.456 643.911 346.487 643.105L352.694 641.444C355.732 640.638 358.747 636.97 359.432 633.278L361.576 623.331L369.742 587.387L374.409 592.45L384.387 603.283L392.835 612.457L392.649 612.537L397.985 618.051L398.832 618.97H398.864L402.838 623.057C404.893 625.25 408.69 625.959 411.326 624.645L416.718 621.961C419.354 620.639 419.829 617.793 417.766 615.593L374.03 568.525L382.856 529.654L459.608 576.279L459.382 576.457L465.282 579.721L466.427 580.414L466.483 580.382L471.473 583.131C473.77 584.445 477.47 583.913 479.727 581.946L484.337 577.924C486.594 575.957 486.562 573.297 484.257 571.983L386.58 513.275L394.004 480.547L531.781 512.968C535.465 513.831 542.147 507.559 543.461 504.843C544.766 502.126 542.816 499.2 539.132 498.33L397.542 465.005L401.814 446.159H556.696C560.484 446.159 565.103 438.525 565.603 435.583C566.103 432.641 563.426 430.23 559.638 430.23H405.441L407.666 420.436L563.298 368.346C566.965 367.395 569.955 363.518 569.955 359.737V357.045C569.955 353.264 566.973 350.951 563.298 351.894L411.648 402.968L414.711 389.426L564.071 287.293C567.32 285.342 569.964 280.643 569.964 276.862V272.01C569.964 268.221 567.32 266.73 564.079 268.688L419.612 367.847L426.125 343.784L565.297 188.248C567.86 185.459 569.955 180.09 569.955 176.31V168.628C569.955 164.839 566.828 163.082 564.265 165.863L432.895 314.12L566.86 41.9977H566.868ZM313.552 461.612L335.065 466.674L329.157 478.403L309.24 466.295L313.552 461.612ZM256.411 461.612L260.732 466.287L240.814 478.403L234.906 466.674L256.411 461.612ZM184.488 446.159H206.727L211.587 455.792L187.938 461.362L184.488 446.159ZM197.747 504.553L191.46 476.895L218.946 470.422L227.152 486.706L197.747 504.553ZM209.048 554.289L201.471 520.932L234.342 500.957L242.765 517.676L209.048 554.289ZM247.996 492.663L271.726 478.25L275.402 482.24L254.292 505.165L247.996 492.663ZM284.978 566.074L261.949 520.36L284.978 495.347L308.015 520.36L284.978 566.074ZM315.672 505.165L294.554 482.24L298.237 478.25L321.967 492.663L315.68 505.157L315.672 505.165ZM360.923 554.281L327.198 517.676L335.63 500.957L368.492 520.932L360.923 554.281ZM372.216 504.545L342.812 486.698L351.009 470.422L378.495 476.895L372.216 504.545ZM382.026 461.362L358.384 455.8L363.245 446.159H385.476L382.026 461.362Z" fill="white"/>
</svg>

