<svg width="2268" height="357" viewBox="0 0 2268 357" fill="none" xmlns="http://www.w3.org/2000/svg">
<path d="M490.999 4.9334C487.482 1.7552 482.944 0 478.243 0H19.2204C8.6052 0 0 8.765 0 19.5771L0.000602722 182.985C0.000702722 193.797 8.6059 202.562 19.2209 202.562H801.371C811.986 202.562 820.591 211.327 820.591 222.139V336.804C820.591 347.616 829.196 356.381 839.812 356.381H1428.19C1438.8 356.381 1447.41 347.616 1447.41 336.804V222.139C1447.41 211.327 1456.01 202.562 1466.63 202.562H2248.78C2259.39 202.562 2268 193.797 2268 182.985V19.5768C2268 8.7648 2259.39 0 2248.78 0H1789.76C1785.06 0 1780.52 1.7552 1777 4.9334L1722.93 53.7978C1719.42 56.9758 1714.88 58.7308 1710.18 58.7308H557.824C553.122 58.7308 548.584 56.9758 545.067 53.7978L490.999 4.9334Z" fill="black"/>
</svg>

